{
    "asset" : {
        "generator" : "Khronos glTF Blender I/O v1.0.5",
        "version" : "2.0"
    },
    "scene" : 0,
    "scenes" : [
        {
            "name" : "Scene",
            "nodes" : [
                2
            ]
        }
    ],
    "nodes" : [
        {
            "mesh" : 0,
            "name" : "Snow_FirTree_x2_y3",
            "translation" : [
                33750.203125,
                4860.328125,
                87186.3671875
            ]
        },
        {
            "children" : [
                0
            ],
            "name" : "Meshes"
        },
        {
            "children" : [
                1
            ],
            "name" : "Terrain__ID_23330_",
            "rotation" : [
                1,
                0,
                0,
                -1.3435885648505064e-07
            ],
            "scale" : [
                0.009999999776482582,
                0.010000000707805157,
                0.010000000707805157
            ]
        }
    ],
    "materials" : [
        {
            "doubleSided" : true,
            "name" : "Snow_FirTree_Material",
            "pbrMetallicRoughness" : {
                "baseColorTexture" : {
                    "index" : 0,
                    "texCoord" : 0
                },
                "metallicFactor" : 0,
                "roughnessFactor" : 0.5527864098548889
            }
        }
    ],
    "meshes" : [
        {
            "name" : "Scene",
            "primitives" : [
                {
                    "attributes" : {
                        "POSITION" : 0,
                        "NORMAL" : 1,
                        "TEXCOORD_0" : 2,
                        "TEXCOORD_1" : 3
                    },
                    "indices" : 4,
                    "material" : 0
                }
            ]
        }
    ],
    "textures" : [
        {
            "source" : 0
        }
    ],
    "images" : [
        {
            "bufferView" : 5,
            "mimeType" : "image/png",
            "name" : "DL_grass_01"
        }
    ],
    "accessors" : [
        {
            "bufferView" : 0,
            "componentType" : 5126,
            "count" : 18278,
            "max" : [
                -20000,
                -661.6834716796875,
                -30000
            ],
            "min" : [
                -40000,
                -30000,
                -100000
            ],
            "type" : "VEC3"
        },
        {
            "bufferView" : 1,
            "componentType" : 5126,
            "count" : 18278,
            "type" : "VEC3"
        },
        {
            "bufferView" : 2,
            "componentType" : 5126,
            "count" : 18278,
            "type" : "VEC2"
        },
        {
            "bufferView" : 3,
            "componentType" : 5126,
            "count" : 18278,
            "type" : "VEC2"
        },
        {
            "bufferView" : 4,
            "componentType" : 5123,
            "count" : 102900,
            "type" : "SCALAR"
        }
    ],
    "bufferViews" : [
        {
            "buffer" : 0,
            "byteLength" : 219336,
            "byteOffset" : 0
        },
        {
            "buffer" : 0,
            "byteLength" : 219336,
            "byteOffset" : 219336
        },
        {
            "buffer" : 0,
            "byteLength" : 146224,
            "byteOffset" : 438672
        },
        {
            "buffer" : 0,
            "byteLength" : 146224,
            "byteOffset" : 584896
        },
        {
            "buffer" : 0,
            "byteLength" : 205800,
            "byteOffset" : 731120
        },
        {
            "buffer" : 0,
            "byteLength" : 493863,
            "byteOffset" : 936920
        }
    ],
    "buffers" : [
        {
            "byteLength" : 1430784,
            "uri" : "data:application/octet-stream;base64,"
        }
    ]
}
