{
	"asset":{
		"generator":"Khronos glTF Blender I/O v3.6.27",
		"version":"2.0"
	},
	"scene":0,
	"scenes":[
		{
			"name":"Scene",
			"nodes":[
				0,
				1,
				2,
				3,
				4,
				5,
				6,
				7,
				8,
				9,
				10,
				11,
				12,
				13
			]
		}
	],
	"nodes":[
		{
			"mesh":0,
			"name":"Snow_FirTree_x2_y3",
			"rotation":[
				0.7071068286895752,
				0,
				0,
				0.7071068286895752
			],
			"scale":[
				0.009999999776482582,
				0.009999999776482582,
				0.009999999776482582
			]
		},
		{
			"mesh":1,
			"name":"Snow_FirTree_x2_y4",
			"rotation":[
				0.7071068286895752,
				0,
				0,
				0.7071068286895752
			],
			"scale":[
				0.009999999776482582,
				0.009999999776482582,
				0.009999999776482582
			]
		},
		{
			"mesh":2,
			"name":"Snow_FirTree_x2_y5",
			"rotation":[
				0.7071068286895752,
				0,
				0,
				0.7071068286895752
			],
			"scale":[
				0.009999999776482582,
				0.009999999776482582,
				0.009999999776482582
			]
		},
		{
			"mesh":3,
			"name":"Snow_FirTree_x2_y6",
			"rotation":[
				0.7071068286895752,
				0,
				0,
				0.7071068286895752
			],
			"scale":[
				0.009999999776482582,
				0.009999999776482582,
				0.009999999776482582
			]
		},
		{
			"mesh":4,
			"name":"Snow_FirTree_x2_y7",
			"rotation":[
				0.7071068286895752,
				0,
				0,
				0.7071068286895752
			],
			"scale":[
				0.009999999776482582,
				0.009999999776482582,
				0.009999999776482582
			]
		},
		{
			"mesh":5,
			"name":"Snow_FirTree_x2_y8",
			"rotation":[
				0.7071068286895752,
				0,
				0,
				0.7071068286895752
			],
			"scale":[
				0.009999999776482582,
				0.009999999776482582,
				0.009999999776482582
			]
		},
		{
			"mesh":6,
			"name":"Snow_FirTree_x2_y9",
			"rotation":[
				0.7071068286895752,
				0,
				0,
				0.7071068286895752
			],
			"scale":[
				0.009999999776482582,
				0.009999999776482582,
				0.009999999776482582
			]
		},
		{
			"mesh":7,
			"name":"Snow_FirTree_x3_y3",
			"rotation":[
				0.7071068286895752,
				0,
				0,
				0.7071068286895752
			],
			"scale":[
				0.009999999776482582,
				0.009999999776482582,
				0.009999999776482582
			]
		},
		{
			"mesh":8,
			"name":"Snow_FirTree_x3_y4",
			"rotation":[
				0.7071068286895752,
				0,
				0,
				0.7071068286895752
			],
			"scale":[
				0.009999999776482582,
				0.009999999776482582,
				0.009999999776482582
			]
		},
		{
			"mesh":9,
			"name":"Snow_FirTree_x3_y5",
			"rotation":[
				0.7071068286895752,
				0,
				0,
				0.7071068286895752
			],
			"scale":[
				0.009999999776482582,
				0.009999999776482582,
				0.009999999776482582
			]
		},
		{
			"mesh":10,
			"name":"Snow_FirTree_x3_y6",
			"rotation":[
				0.7071068286895752,
				0,
				0,
				0.7071068286895752
			],
			"scale":[
				0.009999999776482582,
				0.009999999776482582,
				0.009999999776482582
			]
		},
		{
			"mesh":11,
			"name":"Snow_FirTree_x3_y7",
			"rotation":[
				0.7071068286895752,
				0,
				0,
				0.7071068286895752
			],
			"scale":[
				0.009999999776482582,
				0.009999999776482582,
				0.009999999776482582
			]
		},
		{
			"mesh":12,
			"name":"Snow_FirTree_x3_y8",
			"rotation":[
				0.7071068286895752,
				0,
				0,
				0.7071068286895752
			],
			"scale":[
				0.009999999776482582,
				0.009999999776482582,
				0.009999999776482582
			]
		},
		{
			"mesh":13,
			"name":"Snow_FirTree_x3_y9",
			"rotation":[
				0.7071068286895752,
				0,
				0,
				0.7071068286895752
			],
			"scale":[
				0.009999999776482582,
				0.009999999776482582,
				0.009999999776482582
			]
		}
	],
	"materials":[
		{
			"doubleSided":true,
			"name":"Snow_FirTree_Material",
			"pbrMetallicRoughness":{
				"metallicFactor":0,
				"roughnessFactor":0.5527864098548889
			}
		}
	],
	"meshes":[
		{
			"name":"Scene.014",
			"primitives":[
				{
					"attributes":{
						"POSITION":0,
						"NORMAL":1,
						"TEXCOORD_0":2,
						"TEXCOORD_1":3
					},
					"indices":4,
					"material":0
				}
			]
		},
		{
			"name":"Scene.015",
			"primitives":[
				{
					"attributes":{
						"POSITION":5,
						"NORMAL":6,
						"TEXCOORD_0":7,
						"TEXCOORD_1":8
					},
					"indices":9,
					"material":0
				}
			]
		},
		{
			"name":"Scene.002",
			"primitives":[
				{
					"attributes":{
						"POSITION":10,
						"NORMAL":11,
						"TEXCOORD_0":12,
						"TEXCOORD_1":13
					},
					"indices":14,
					"material":0
				}
			]
		},
		{
			"name":"Scene.003",
			"primitives":[
				{
					"attributes":{
						"POSITION":15,
						"NORMAL":16,
						"TEXCOORD_0":17,
						"TEXCOORD_1":18
					},
					"indices":14,
					"material":0
				}
			]
		},
		{
			"name":"Scene.004",
			"primitives":[
				{
					"attributes":{
						"POSITION":19,
						"NORMAL":20,
						"TEXCOORD_0":21,
						"TEXCOORD_1":22
					},
					"indices":14,
					"material":0
				}
			]
		},
		{
			"name":"Scene.005",
			"primitives":[
				{
					"attributes":{
						"POSITION":23,
						"NORMAL":24,
						"TEXCOORD_0":25,
						"TEXCOORD_1":26
					},
					"indices":14,
					"material":0
				}
			]
		},
		{
			"name":"Scene.006",
			"primitives":[
				{
					"attributes":{
						"POSITION":27,
						"NORMAL":28,
						"TEXCOORD_0":29,
						"TEXCOORD_1":30
					},
					"indices":14,
					"material":0
				}
			]
		},
		{
			"name":"Scene.007",
			"primitives":[
				{
					"attributes":{
						"POSITION":31,
						"NORMAL":32,
						"TEXCOORD_0":33,
						"TEXCOORD_1":34
					},
					"indices":14,
					"material":0
				}
			]
		},
		{
			"name":"Scene.008",
			"primitives":[
				{
					"attributes":{
						"POSITION":35,
						"NORMAL":36,
						"TEXCOORD_0":37,
						"TEXCOORD_1":38
					},
					"indices":14,
					"material":0
				}
			]
		},
		{
			"name":"Scene.009",
			"primitives":[
				{
					"attributes":{
						"POSITION":39,
						"NORMAL":40,
						"TEXCOORD_0":41,
						"TEXCOORD_1":42
					},
					"indices":14,
					"material":0
				}
			]
		},
		{
			"name":"Scene.010",
			"primitives":[
				{
					"attributes":{
						"POSITION":43,
						"NORMAL":44,
						"TEXCOORD_0":45,
						"TEXCOORD_1":46
					},
					"indices":14,
					"material":0
				}
			]
		},
		{
			"name":"Scene.011",
			"primitives":[
				{
					"attributes":{
						"POSITION":47,
						"NORMAL":48,
						"TEXCOORD_0":49,
						"TEXCOORD_1":50
					},
					"indices":14,
					"material":0
				}
			]
		},
		{
			"name":"Scene.012",
			"primitives":[
				{
					"attributes":{
						"POSITION":51,
						"NORMAL":52,
						"TEXCOORD_0":53,
						"TEXCOORD_1":54
					},
					"indices":14,
					"material":0
				}
			]
		},
		{
			"name":"Scene.013",
			"primitives":[
				{
					"attributes":{
						"POSITION":55,
						"NORMAL":56,
						"TEXCOORD_0":57,
						"TEXCOORD_1":58
					},
					"indices":14,
					"material":0
				}
			]
		}
	],
	"accessors":[
		{
			"bufferView":0,
			"componentType":5126,
			"count":254,
			"max":[
				-19995.130859375,
				40012.41015625,
				-20004.39453125
			],
			"min":[
				-30006.826171875,
				30000,
				-28046.12109375
			],
			"type":"VEC3"
		},
		{
			"bufferView":1,
			"componentType":5126,
			"count":254,
			"type":"VEC3"
		},
		{
			"bufferView":2,
			"componentType":5126,
			"count":254,
			"type":"VEC2"
		},
		{
			"bufferView":3,
			"componentType":5126,
			"count":254,
			"type":"VEC2"
		},
		{
			"bufferView":4,
			"componentType":5123,
			"count":1347,
			"type":"SCALAR"
		},
		{
			"bufferView":5,
			"componentType":5126,
			"count":255,
			"max":[
				-19980.4921875,
				50024.0625,
				-16227.3740234375
			],
			"min":[
				-30005.927734375,
				39991.74609375,
				-24368.73046875
			],
			"type":"VEC3"
		},
		{
			"bufferView":6,
			"componentType":5126,
			"count":255,
			"type":"VEC3"
		},
		{
			"bufferView":7,
			"componentType":5126,
			"count":255,
			"type":"VEC2"
		},
		{
			"bufferView":8,
			"componentType":5126,
			"count":255,
			"type":"VEC2"
		},
		{
			"bufferView":9,
			"componentType":5123,
			"count":1344,
			"type":"SCALAR"
		},
		{
			"bufferView":10,
			"componentType":5126,
			"count":1296,
			"max":[
				-20000,
				60000,
				-11330.5712890625
			],
			"min":[
				-30000,
				50000,
				-20163.833984375
			],
			"type":"VEC3"
		},
		{
			"bufferView":11,
			"componentType":5126,
			"count":1296,
			"type":"VEC3"
		},
		{
			"bufferView":12,
			"componentType":5126,
			"count":1296,
			"type":"VEC2"
		},
		{
			"bufferView":13,
			"componentType":5126,
			"count":1296,
			"type":"VEC2"
		},
		{
			"bufferView":14,
			"componentType":5123,
			"count":7350,
			"type":"SCALAR"
		},
		{
			"bufferView":15,
			"componentType":5126,
			"count":1296,
			"max":[
				-20000,
				70000,
				-9083.6689453125
			],
			"min":[
				-30000,
				60000,
				-14053.8408203125
			],
			"type":"VEC3"
		},
		{
			"bufferView":16,
			"componentType":5126,
			"count":1296,
			"type":"VEC3"
		},
		{
			"bufferView":17,
			"componentType":5126,
			"count":1296,
			"type":"VEC2"
		},
		{
			"bufferView":18,
			"componentType":5126,
			"count":1296,
			"type":"VEC2"
		},
		{
			"bufferView":19,
			"componentType":5126,
			"count":1296,
			"max":[
				-20000,
				80000,
				-5625.7978515625
			],
			"min":[
				-30000,
				70000,
				-13500.3525390625
			],
			"type":"VEC3"
		},
		{
			"bufferView":20,
			"componentType":5126,
			"count":1296,
			"type":"VEC3"
		},
		{
			"bufferView":21,
			"componentType":5126,
			"count":1296,
			"type":"VEC2"
		},
		{
			"bufferView":22,
			"componentType":5126,
			"count":1296,
			"type":"VEC2"
		},
		{
			"bufferView":23,
			"componentType":5126,
			"count":1296,
			"max":[
				-20000,
				90000,
				-3068.488037109375
			],
			"min":[
				-30000,
				80000,
				-13062.990234375
			],
			"type":"VEC3"
		},
		{
			"bufferView":24,
			"componentType":5126,
			"count":1296,
			"type":"VEC3"
		},
		{
			"bufferView":25,
			"componentType":5126,
			"count":1296,
			"type":"VEC2"
		},
		{
			"bufferView":26,
			"componentType":5126,
			"count":1296,
			"type":"VEC2"
		},
		{
			"bufferView":27,
			"componentType":5126,
			"count":1296,
			"max":[
				-20000,
				100000,
				-661.6834716796875
			],
			"min":[
				-30000,
				90000,
				-10550.375
			],
			"type":"VEC3"
		},
		{
			"bufferView":28,
			"componentType":5126,
			"count":1296,
			"type":"VEC3"
		},
		{
			"bufferView":29,
			"componentType":5126,
			"count":1296,
			"type":"VEC2"
		},
		{
			"bufferView":30,
			"componentType":5126,
			"count":1296,
			"type":"VEC2"
		},
		{
			"bufferView":31,
			"componentType":5126,
			"count":1296,
			"max":[
				-30000,
				40000,
				-21119.744140625
			],
			"min":[
				-40000,
				30000,
				-30000
			],
			"type":"VEC3"
		},
		{
			"bufferView":32,
			"componentType":5126,
			"count":1296,
			"type":"VEC3"
		},
		{
			"bufferView":33,
			"componentType":5126,
			"count":1296,
			"type":"VEC2"
		},
		{
			"bufferView":34,
			"componentType":5126,
			"count":1296,
			"type":"VEC2"
		},
		{
			"bufferView":35,
			"componentType":5126,
			"count":1296,
			"max":[
				-30000,
				50000,
				-15001.177734375
			],
			"min":[
				-40000,
				40000,
				-23480.283203125
			],
			"type":"VEC3"
		},
		{
			"bufferView":36,
			"componentType":5126,
			"count":1296,
			"type":"VEC3"
		},
		{
			"bufferView":37,
			"componentType":5126,
			"count":1296,
			"type":"VEC2"
		},
		{
			"bufferView":38,
			"componentType":5126,
			"count":1296,
			"type":"VEC2"
		},
		{
			"bufferView":39,
			"componentType":5126,
			"count":1296,
			"max":[
				-30000,
				60000,
				-11180.7353515625
			],
			"min":[
				-40000,
				50000,
				-21035.18359375
			],
			"type":"VEC3"
		},
		{
			"bufferView":40,
			"componentType":5126,
			"count":1296,
			"type":"VEC3"
		},
		{
			"bufferView":41,
			"componentType":5126,
			"count":1296,
			"type":"VEC2"
		},
		{
			"bufferView":42,
			"componentType":5126,
			"count":1296,
			"type":"VEC2"
		},
		{
			"bufferView":43,
			"componentType":5126,
			"count":1296,
			"max":[
				-30000,
				70000,
				-9192.4609375
			],
			"min":[
				-40000,
				60000,
				-15512.513671875
			],
			"type":"VEC3"
		},
		{
			"bufferView":44,
			"componentType":5126,
			"count":1296,
			"type":"VEC3"
		},
		{
			"bufferView":45,
			"componentType":5126,
			"count":1296,
			"type":"VEC2"
		},
		{
			"bufferView":46,
			"componentType":5126,
			"count":1296,
			"type":"VEC2"
		},
		{
			"bufferView":47,
			"componentType":5126,
			"count":1296,
			"max":[
				-30000,
				80000,
				-5246.65771484375
			],
			"min":[
				-40000,
				70000,
				-13000.3662109375
			],
			"type":"VEC3"
		},
		{
			"bufferView":48,
			"componentType":5126,
			"count":1296,
			"type":"VEC3"
		},
		{
			"bufferView":49,
			"componentType":5126,
			"count":1296,
			"type":"VEC2"
		},
		{
			"bufferView":50,
			"componentType":5126,
			"count":1296,
			"type":"VEC2"
		},
		{
			"bufferView":51,
			"componentType":5126,
			"count":1296,
			"max":[
				-30000,
				90000,
				-4642.81298828125
			],
			"min":[
				-40000,
				80000,
				-9091.841796875
			],
			"type":"VEC3"
		},
		{
			"bufferView":52,
			"componentType":5126,
			"count":1296,
			"type":"VEC3"
		},
		{
			"bufferView":53,
			"componentType":5126,
			"count":1296,
			"type":"VEC2"
		},
		{
			"bufferView":54,
			"componentType":5126,
			"count":1296,
			"type":"VEC2"
		},
		{
			"bufferView":55,
			"componentType":5126,
			"count":1296,
			"max":[
				-30000,
				100000,
				-5000
			],
			"min":[
				-40000,
				90000,
				-8756.794921875
			],
			"type":"VEC3"
		},
		{
			"bufferView":56,
			"componentType":5126,
			"count":1296,
			"type":"VEC3"
		},
		{
			"bufferView":57,
			"componentType":5126,
			"count":1296,
			"type":"VEC2"
		},
		{
			"bufferView":58,
			"componentType":5126,
			"count":1296,
			"type":"VEC2"
		}
	],
	"bufferViews":[
		{
			"buffer":0,
			"byteLength":3048,
			"byteOffset":0,
			"target":34962
		},
		{
			"buffer":0,
			"byteLength":3048,
			"byteOffset":3048,
			"target":34962
		},
		{
			"buffer":0,
			"byteLength":2032,
			"byteOffset":6096,
			"target":34962
		},
		{
			"buffer":0,
			"byteLength":2032,
			"byteOffset":8128,
			"target":34962
		},
		{
			"buffer":0,
			"byteLength":2694,
			"byteOffset":10160,
			"target":34963
		},
		{
			"buffer":0,
			"byteLength":3060,
			"byteOffset":12856,
			"target":34962
		},
		{
			"buffer":0,
			"byteLength":3060,
			"byteOffset":15916,
			"target":34962
		},
		{
			"buffer":0,
			"byteLength":2040,
			"byteOffset":18976,
			"target":34962
		},
		{
			"buffer":0,
			"byteLength":2040,
			"byteOffset":21016,
			"target":34962
		},
		{
			"buffer":0,
			"byteLength":2688,
			"byteOffset":23056,
			"target":34963
		},
		{
			"buffer":0,
			"byteLength":15552,
			"byteOffset":25744,
			"target":34962
		},
		{
			"buffer":0,
			"byteLength":15552,
			"byteOffset":41296,
			"target":34962
		},
		{
			"buffer":0,
			"byteLength":10368,
			"byteOffset":56848,
			"target":34962
		},
		{
			"buffer":0,
			"byteLength":10368,
			"byteOffset":67216,
			"target":34962
		},
		{
			"buffer":0,
			"byteLength":14700,
			"byteOffset":77584,
			"target":34963
		},
		{
			"buffer":0,
			"byteLength":15552,
			"byteOffset":92284,
			"target":34962
		},
		{
			"buffer":0,
			"byteLength":15552,
			"byteOffset":107836,
			"target":34962
		},
		{
			"buffer":0,
			"byteLength":10368,
			"byteOffset":123388,
			"target":34962
		},
		{
			"buffer":0,
			"byteLength":10368,
			"byteOffset":133756,
			"target":34962
		},
		{
			"buffer":0,
			"byteLength":15552,
			"byteOffset":144124,
			"target":34962
		},
		{
			"buffer":0,
			"byteLength":15552,
			"byteOffset":159676,
			"target":34962
		},
		{
			"buffer":0,
			"byteLength":10368,
			"byteOffset":175228,
			"target":34962
		},
		{
			"buffer":0,
			"byteLength":10368,
			"byteOffset":185596,
			"target":34962
		},
		{
			"buffer":0,
			"byteLength":15552,
			"byteOffset":195964,
			"target":34962
		},
		{
			"buffer":0,
			"byteLength":15552,
			"byteOffset":211516,
			"target":34962
		},
		{
			"buffer":0,
			"byteLength":10368,
			"byteOffset":227068,
			"target":34962
		},
		{
			"buffer":0,
			"byteLength":10368,
			"byteOffset":237436,
			"target":34962
		},
		{
			"buffer":0,
			"byteLength":15552,
			"byteOffset":247804,
			"target":34962
		},
		{
			"buffer":0,
			"byteLength":15552,
			"byteOffset":263356,
			"target":34962
		},
		{
			"buffer":0,
			"byteLength":10368,
			"byteOffset":278908,
			"target":34962
		},
		{
			"buffer":0,
			"byteLength":10368,
			"byteOffset":289276,
			"target":34962
		},
		{
			"buffer":0,
			"byteLength":15552,
			"byteOffset":299644,
			"target":34962
		},
		{
			"buffer":0,
			"byteLength":15552,
			"byteOffset":315196,
			"target":34962
		},
		{
			"buffer":0,
			"byteLength":10368,
			"byteOffset":330748,
			"target":34962
		},
		{
			"buffer":0,
			"byteLength":10368,
			"byteOffset":341116,
			"target":34962
		},
		{
			"buffer":0,
			"byteLength":15552,
			"byteOffset":351484,
			"target":34962
		},
		{
			"buffer":0,
			"byteLength":15552,
			"byteOffset":367036,
			"target":34962
		},
		{
			"buffer":0,
			"byteLength":10368,
			"byteOffset":382588,
			"target":34962
		},
		{
			"buffer":0,
			"byteLength":10368,
			"byteOffset":392956,
			"target":34962
		},
		{
			"buffer":0,
			"byteLength":15552,
			"byteOffset":403324,
			"target":34962
		},
		{
			"buffer":0,
			"byteLength":15552,
			"byteOffset":418876,
			"target":34962
		},
		{
			"buffer":0,
			"byteLength":10368,
			"byteOffset":434428,
			"target":34962
		},
		{
			"buffer":0,
			"byteLength":10368,
			"byteOffset":444796,
			"target":34962
		},
		{
			"buffer":0,
			"byteLength":15552,
			"byteOffset":455164,
			"target":34962
		},
		{
			"buffer":0,
			"byteLength":15552,
			"byteOffset":470716,
			"target":34962
		},
		{
			"buffer":0,
			"byteLength":10368,
			"byteOffset":486268,
			"target":34962
		},
		{
			"buffer":0,
			"byteLength":10368,
			"byteOffset":496636,
			"target":34962
		},
		{
			"buffer":0,
			"byteLength":15552,
			"byteOffset":507004,
			"target":34962
		},
		{
			"buffer":0,
			"byteLength":15552,
			"byteOffset":522556,
			"target":34962
		},
		{
			"buffer":0,
			"byteLength":10368,
			"byteOffset":538108,
			"target":34962
		},
		{
			"buffer":0,
			"byteLength":10368,
			"byteOffset":548476,
			"target":34962
		},
		{
			"buffer":0,
			"byteLength":15552,
			"byteOffset":558844,
			"target":34962
		},
		{
			"buffer":0,
			"byteLength":15552,
			"byteOffset":574396,
			"target":34962
		},
		{
			"buffer":0,
			"byteLength":10368,
			"byteOffset":589948,
			"target":34962
		},
		{
			"buffer":0,
			"byteLength":10368,
			"byteOffset":600316,
			"target":34962
		},
		{
			"buffer":0,
			"byteLength":15552,
			"byteOffset":610684,
			"target":34962
		},
		{
			"buffer":0,
			"byteLength":15552,
			"byteOffset":626236,
			"target":34962
		},
		{
			"buffer":0,
			"byteLength":10368,
			"byteOffset":641788,
			"target":34962
		},
		{
			"buffer":0,
			"byteLength":10368,
			"byteOffset":652156,
			"target":34962
		}
	],
	"buffers":[
		{
			"byteLength":662524,
			"uri":"terrain_.bin"
		}
	]
}
