{
	"asset":{
		"generator":"Khronos glTF Blender I/O v3.6.27",
		"version":"2.0"
	},
	"scene":0,
	"scenes":[
		{
			"name":"Scene",
			"nodes":[
				15
			]
		}
	],
	"nodes":[
		{
			"mesh":0,
			"name":"Snow_FirTree_x2_y3"
		},
		{
			"mesh":1,
			"name":"Snow_FirTree_x2_y4"
		},
		{
			"mesh":2,
			"name":"Snow_FirTree_x2_y5"
		},
		{
			"mesh":3,
			"name":"Snow_FirTree_x2_y6"
		},
		{
			"mesh":4,
			"name":"Snow_FirTree_x2_y7"
		},
		{
			"mesh":5,
			"name":"Snow_FirTree_x2_y8"
		},
		{
			"mesh":6,
			"name":"Snow_FirTree_x2_y9"
		},
		{
			"mesh":7,
			"name":"Snow_FirTree_x3_y3"
		},
		{
			"mesh":8,
			"name":"Snow_FirTree_x3_y4"
		},
		{
			"mesh":9,
			"name":"Snow_FirTree_x3_y5"
		},
		{
			"mesh":10,
			"name":"Snow_FirTree_x3_y6"
		},
		{
			"mesh":11,
			"name":"Snow_FirTree_x3_y7"
		},
		{
			"mesh":12,
			"name":"Snow_FirTree_x3_y8"
		},
		{
			"mesh":13,
			"name":"Snow_FirTree_x3_y9"
		},
		{
			"children":[
				0,
				1,
				2,
				3,
				4,
				5,
				6,
				7,
				8,
				9,
				10,
				11,
				12,
				13
			],
			"name":"Meshes"
		},
		{
			"children":[
				14
			],
			"name":"Terrain__ID_23330_",
			"rotation":[
				0.7071068286895752,
				0,
				0,
				0.7071068286895752
			],
			"scale":[
				0.009999999776482582,
				0.009999999776482582,
				0.009999999776482582
			]
		}
	],
	"materials":[
		{
			"doubleSided":true,
			"name":"Snow_FirTree_Material",
			"pbrMetallicRoughness":{
				"metallicFactor":0,
				"roughnessFactor":0.5527864098548889
			}
		}
	],
	"meshes":[
		{
			"name":"Scene",
			"primitives":[
				{
					"attributes":{
						"POSITION":0,
						"NORMAL":1,
						"TEXCOORD_0":2,
						"TEXCOORD_1":3
					},
					"indices":4,
					"material":0
				}
			]
		},
		{
			"name":"Scene.001",
			"primitives":[
				{
					"attributes":{
						"POSITION":5,
						"NORMAL":6,
						"TEXCOORD_0":7,
						"TEXCOORD_1":8
					},
					"indices":4,
					"material":0
				}
			]
		},
		{
			"name":"Scene.002",
			"primitives":[
				{
					"attributes":{
						"POSITION":9,
						"NORMAL":10,
						"TEXCOORD_0":11,
						"TEXCOORD_1":12
					},
					"indices":4,
					"material":0
				}
			]
		},
		{
			"name":"Scene.003",
			"primitives":[
				{
					"attributes":{
						"POSITION":13,
						"NORMAL":14,
						"TEXCOORD_0":15,
						"TEXCOORD_1":16
					},
					"indices":4,
					"material":0
				}
			]
		},
		{
			"name":"Scene.004",
			"primitives":[
				{
					"attributes":{
						"POSITION":17,
						"NORMAL":18,
						"TEXCOORD_0":19,
						"TEXCOORD_1":20
					},
					"indices":4,
					"material":0
				}
			]
		},
		{
			"name":"Scene.005",
			"primitives":[
				{
					"attributes":{
						"POSITION":21,
						"NORMAL":22,
						"TEXCOORD_0":23,
						"TEXCOORD_1":24
					},
					"indices":4,
					"material":0
				}
			]
		},
		{
			"name":"Scene.006",
			"primitives":[
				{
					"attributes":{
						"POSITION":25,
						"NORMAL":26,
						"TEXCOORD_0":27,
						"TEXCOORD_1":28
					},
					"indices":4,
					"material":0
				}
			]
		},
		{
			"name":"Scene.007",
			"primitives":[
				{
					"attributes":{
						"POSITION":29,
						"NORMAL":30,
						"TEXCOORD_0":31,
						"TEXCOORD_1":32
					},
					"indices":4,
					"material":0
				}
			]
		},
		{
			"name":"Scene.008",
			"primitives":[
				{
					"attributes":{
						"POSITION":33,
						"NORMAL":34,
						"TEXCOORD_0":35,
						"TEXCOORD_1":36
					},
					"indices":4,
					"material":0
				}
			]
		},
		{
			"name":"Scene.009",
			"primitives":[
				{
					"attributes":{
						"POSITION":37,
						"NORMAL":38,
						"TEXCOORD_0":39,
						"TEXCOORD_1":40
					},
					"indices":4,
					"material":0
				}
			]
		},
		{
			"name":"Scene.010",
			"primitives":[
				{
					"attributes":{
						"POSITION":41,
						"NORMAL":42,
						"TEXCOORD_0":43,
						"TEXCOORD_1":44
					},
					"indices":4,
					"material":0
				}
			]
		},
		{
			"name":"Scene.011",
			"primitives":[
				{
					"attributes":{
						"POSITION":45,
						"NORMAL":46,
						"TEXCOORD_0":47,
						"TEXCOORD_1":48
					},
					"indices":4,
					"material":0
				}
			]
		},
		{
			"name":"Scene.012",
			"primitives":[
				{
					"attributes":{
						"POSITION":49,
						"NORMAL":50,
						"TEXCOORD_0":51,
						"TEXCOORD_1":52
					},
					"indices":4,
					"material":0
				}
			]
		},
		{
			"name":"Scene.013",
			"primitives":[
				{
					"attributes":{
						"POSITION":53,
						"NORMAL":54,
						"TEXCOORD_0":55,
						"TEXCOORD_1":56
					},
					"indices":4,
					"material":0
				}
			]
		}
	],
	"accessors":[
		{
			"bufferView":0,
			"componentType":5126,
			"count":1296,
			"max":[
				-20000,
				40000,
				-20000.962890625
			],
			"min":[
				-30000,
				30000,
				-28046.12109375
			],
			"type":"VEC3"
		},
		{
			"bufferView":1,
			"componentType":5126,
			"count":1296,
			"type":"VEC3"
		},
		{
			"bufferView":2,
			"componentType":5126,
			"count":1296,
			"type":"VEC2"
		},
		{
			"bufferView":3,
			"componentType":5126,
			"count":1296,
			"type":"VEC2"
		},
		{
			"bufferView":4,
			"componentType":5123,
			"count":7350,
			"type":"SCALAR"
		},
		{
			"bufferView":5,
			"componentType":5126,
			"count":1296,
			"max":[
				-20000,
				50000,
				-16226.6513671875
			],
			"min":[
				-30000,
				40000,
				-24339.5546875
			],
			"type":"VEC3"
		},
		{
			"bufferView":6,
			"componentType":5126,
			"count":1296,
			"type":"VEC3"
		},
		{
			"bufferView":7,
			"componentType":5126,
			"count":1296,
			"type":"VEC2"
		},
		{
			"bufferView":8,
			"componentType":5126,
			"count":1296,
			"type":"VEC2"
		},
		{
			"bufferView":9,
			"componentType":5126,
			"count":1296,
			"max":[
				-20000,
				60000,
				-11330.5712890625
			],
			"min":[
				-30000,
				50000,
				-20163.833984375
			],
			"type":"VEC3"
		},
		{
			"bufferView":10,
			"componentType":5126,
			"count":1296,
			"type":"VEC3"
		},
		{
			"bufferView":11,
			"componentType":5126,
			"count":1296,
			"type":"VEC2"
		},
		{
			"bufferView":12,
			"componentType":5126,
			"count":1296,
			"type":"VEC2"
		},
		{
			"bufferView":13,
			"componentType":5126,
			"count":1296,
			"max":[
				-20000,
				70000,
				-9083.6689453125
			],
			"min":[
				-30000,
				60000,
				-14053.8408203125
			],
			"type":"VEC3"
		},
		{
			"bufferView":14,
			"componentType":5126,
			"count":1296,
			"type":"VEC3"
		},
		{
			"bufferView":15,
			"componentType":5126,
			"count":1296,
			"type":"VEC2"
		},
		{
			"bufferView":16,
			"componentType":5126,
			"count":1296,
			"type":"VEC2"
		},
		{
			"bufferView":17,
			"componentType":5126,
			"count":1296,
			"max":[
				-20000,
				80000,
				-5625.7978515625
			],
			"min":[
				-30000,
				70000,
				-13500.3525390625
			],
			"type":"VEC3"
		},
		{
			"bufferView":18,
			"componentType":5126,
			"count":1296,
			"type":"VEC3"
		},
		{
			"bufferView":19,
			"componentType":5126,
			"count":1296,
			"type":"VEC2"
		},
		{
			"bufferView":20,
			"componentType":5126,
			"count":1296,
			"type":"VEC2"
		},
		{
			"bufferView":21,
			"componentType":5126,
			"count":1296,
			"max":[
				-20000,
				90000,
				-3068.488037109375
			],
			"min":[
				-30000,
				80000,
				-13062.990234375
			],
			"type":"VEC3"
		},
		{
			"bufferView":22,
			"componentType":5126,
			"count":1296,
			"type":"VEC3"
		},
		{
			"bufferView":23,
			"componentType":5126,
			"count":1296,
			"type":"VEC2"
		},
		{
			"bufferView":24,
			"componentType":5126,
			"count":1296,
			"type":"VEC2"
		},
		{
			"bufferView":25,
			"componentType":5126,
			"count":1296,
			"max":[
				-20000,
				100000,
				-661.6834716796875
			],
			"min":[
				-30000,
				90000,
				-10550.375
			],
			"type":"VEC3"
		},
		{
			"bufferView":26,
			"componentType":5126,
			"count":1296,
			"type":"VEC3"
		},
		{
			"bufferView":27,
			"componentType":5126,
			"count":1296,
			"type":"VEC2"
		},
		{
			"bufferView":28,
			"componentType":5126,
			"count":1296,
			"type":"VEC2"
		},
		{
			"bufferView":29,
			"componentType":5126,
			"count":1296,
			"max":[
				-30000,
				40000,
				-21119.744140625
			],
			"min":[
				-40000,
				30000,
				-30000
			],
			"type":"VEC3"
		},
		{
			"bufferView":30,
			"componentType":5126,
			"count":1296,
			"type":"VEC3"
		},
		{
			"bufferView":31,
			"componentType":5126,
			"count":1296,
			"type":"VEC2"
		},
		{
			"bufferView":32,
			"componentType":5126,
			"count":1296,
			"type":"VEC2"
		},
		{
			"bufferView":33,
			"componentType":5126,
			"count":1296,
			"max":[
				-30000,
				50000,
				-15001.177734375
			],
			"min":[
				-40000,
				40000,
				-23480.283203125
			],
			"type":"VEC3"
		},
		{
			"bufferView":34,
			"componentType":5126,
			"count":1296,
			"type":"VEC3"
		},
		{
			"bufferView":35,
			"componentType":5126,
			"count":1296,
			"type":"VEC2"
		},
		{
			"bufferView":36,
			"componentType":5126,
			"count":1296,
			"type":"VEC2"
		},
		{
			"bufferView":37,
			"componentType":5126,
			"count":1296,
			"max":[
				-30000,
				60000,
				-11180.7353515625
			],
			"min":[
				-40000,
				50000,
				-21035.18359375
			],
			"type":"VEC3"
		},
		{
			"bufferView":38,
			"componentType":5126,
			"count":1296,
			"type":"VEC3"
		},
		{
			"bufferView":39,
			"componentType":5126,
			"count":1296,
			"type":"VEC2"
		},
		{
			"bufferView":40,
			"componentType":5126,
			"count":1296,
			"type":"VEC2"
		},
		{
			"bufferView":41,
			"componentType":5126,
			"count":1296,
			"max":[
				-30000,
				70000,
				-9192.4609375
			],
			"min":[
				-40000,
				60000,
				-15512.513671875
			],
			"type":"VEC3"
		},
		{
			"bufferView":42,
			"componentType":5126,
			"count":1296,
			"type":"VEC3"
		},
		{
			"bufferView":43,
			"componentType":5126,
			"count":1296,
			"type":"VEC2"
		},
		{
			"bufferView":44,
			"componentType":5126,
			"count":1296,
			"type":"VEC2"
		},
		{
			"bufferView":45,
			"componentType":5126,
			"count":1296,
			"max":[
				-30000,
				80000,
				-5246.65771484375
			],
			"min":[
				-40000,
				70000,
				-13000.3662109375
			],
			"type":"VEC3"
		},
		{
			"bufferView":46,
			"componentType":5126,
			"count":1296,
			"type":"VEC3"
		},
		{
			"bufferView":47,
			"componentType":5126,
			"count":1296,
			"type":"VEC2"
		},
		{
			"bufferView":48,
			"componentType":5126,
			"count":1296,
			"type":"VEC2"
		},
		{
			"bufferView":49,
			"componentType":5126,
			"count":1296,
			"max":[
				-30000,
				90000,
				-4642.81298828125
			],
			"min":[
				-40000,
				80000,
				-9091.841796875
			],
			"type":"VEC3"
		},
		{
			"bufferView":50,
			"componentType":5126,
			"count":1296,
			"type":"VEC3"
		},
		{
			"bufferView":51,
			"componentType":5126,
			"count":1296,
			"type":"VEC2"
		},
		{
			"bufferView":52,
			"componentType":5126,
			"count":1296,
			"type":"VEC2"
		},
		{
			"bufferView":53,
			"componentType":5126,
			"count":1296,
			"max":[
				-30000,
				100000,
				-5000
			],
			"min":[
				-40000,
				90000,
				-8756.794921875
			],
			"type":"VEC3"
		},
		{
			"bufferView":54,
			"componentType":5126,
			"count":1296,
			"type":"VEC3"
		},
		{
			"bufferView":55,
			"componentType":5126,
			"count":1296,
			"type":"VEC2"
		},
		{
			"bufferView":56,
			"componentType":5126,
			"count":1296,
			"type":"VEC2"
		}
	],
	"bufferViews":[
		{
			"buffer":0,
			"byteLength":15552,
			"byteOffset":0,
			"target":34962
		},
		{
			"buffer":0,
			"byteLength":15552,
			"byteOffset":15552,
			"target":34962
		},
		{
			"buffer":0,
			"byteLength":10368,
			"byteOffset":31104,
			"target":34962
		},
		{
			"buffer":0,
			"byteLength":10368,
			"byteOffset":41472,
			"target":34962
		},
		{
			"buffer":0,
			"byteLength":14700,
			"byteOffset":51840,
			"target":34963
		},
		{
			"buffer":0,
			"byteLength":15552,
			"byteOffset":66540,
			"target":34962
		},
		{
			"buffer":0,
			"byteLength":15552,
			"byteOffset":82092,
			"target":34962
		},
		{
			"buffer":0,
			"byteLength":10368,
			"byteOffset":97644,
			"target":34962
		},
		{
			"buffer":0,
			"byteLength":10368,
			"byteOffset":108012,
			"target":34962
		},
		{
			"buffer":0,
			"byteLength":15552,
			"byteOffset":118380,
			"target":34962
		},
		{
			"buffer":0,
			"byteLength":15552,
			"byteOffset":133932,
			"target":34962
		},
		{
			"buffer":0,
			"byteLength":10368,
			"byteOffset":149484,
			"target":34962
		},
		{
			"buffer":0,
			"byteLength":10368,
			"byteOffset":159852,
			"target":34962
		},
		{
			"buffer":0,
			"byteLength":15552,
			"byteOffset":170220,
			"target":34962
		},
		{
			"buffer":0,
			"byteLength":15552,
			"byteOffset":185772,
			"target":34962
		},
		{
			"buffer":0,
			"byteLength":10368,
			"byteOffset":201324,
			"target":34962
		},
		{
			"buffer":0,
			"byteLength":10368,
			"byteOffset":211692,
			"target":34962
		},
		{
			"buffer":0,
			"byteLength":15552,
			"byteOffset":222060,
			"target":34962
		},
		{
			"buffer":0,
			"byteLength":15552,
			"byteOffset":237612,
			"target":34962
		},
		{
			"buffer":0,
			"byteLength":10368,
			"byteOffset":253164,
			"target":34962
		},
		{
			"buffer":0,
			"byteLength":10368,
			"byteOffset":263532,
			"target":34962
		},
		{
			"buffer":0,
			"byteLength":15552,
			"byteOffset":273900,
			"target":34962
		},
		{
			"buffer":0,
			"byteLength":15552,
			"byteOffset":289452,
			"target":34962
		},
		{
			"buffer":0,
			"byteLength":10368,
			"byteOffset":305004,
			"target":34962
		},
		{
			"buffer":0,
			"byteLength":10368,
			"byteOffset":315372,
			"target":34962
		},
		{
			"buffer":0,
			"byteLength":15552,
			"byteOffset":325740,
			"target":34962
		},
		{
			"buffer":0,
			"byteLength":15552,
			"byteOffset":341292,
			"target":34962
		},
		{
			"buffer":0,
			"byteLength":10368,
			"byteOffset":356844,
			"target":34962
		},
		{
			"buffer":0,
			"byteLength":10368,
			"byteOffset":367212,
			"target":34962
		},
		{
			"buffer":0,
			"byteLength":15552,
			"byteOffset":377580,
			"target":34962
		},
		{
			"buffer":0,
			"byteLength":15552,
			"byteOffset":393132,
			"target":34962
		},
		{
			"buffer":0,
			"byteLength":10368,
			"byteOffset":408684,
			"target":34962
		},
		{
			"buffer":0,
			"byteLength":10368,
			"byteOffset":419052,
			"target":34962
		},
		{
			"buffer":0,
			"byteLength":15552,
			"byteOffset":429420,
			"target":34962
		},
		{
			"buffer":0,
			"byteLength":15552,
			"byteOffset":444972,
			"target":34962
		},
		{
			"buffer":0,
			"byteLength":10368,
			"byteOffset":460524,
			"target":34962
		},
		{
			"buffer":0,
			"byteLength":10368,
			"byteOffset":470892,
			"target":34962
		},
		{
			"buffer":0,
			"byteLength":15552,
			"byteOffset":481260,
			"target":34962
		},
		{
			"buffer":0,
			"byteLength":15552,
			"byteOffset":496812,
			"target":34962
		},
		{
			"buffer":0,
			"byteLength":10368,
			"byteOffset":512364,
			"target":34962
		},
		{
			"buffer":0,
			"byteLength":10368,
			"byteOffset":522732,
			"target":34962
		},
		{
			"buffer":0,
			"byteLength":15552,
			"byteOffset":533100,
			"target":34962
		},
		{
			"buffer":0,
			"byteLength":15552,
			"byteOffset":548652,
			"target":34962
		},
		{
			"buffer":0,
			"byteLength":10368,
			"byteOffset":564204,
			"target":34962
		},
		{
			"buffer":0,
			"byteLength":10368,
			"byteOffset":574572,
			"target":34962
		},
		{
			"buffer":0,
			"byteLength":15552,
			"byteOffset":584940,
			"target":34962
		},
		{
			"buffer":0,
			"byteLength":15552,
			"byteOffset":600492,
			"target":34962
		},
		{
			"buffer":0,
			"byteLength":10368,
			"byteOffset":616044,
			"target":34962
		},
		{
			"buffer":0,
			"byteLength":10368,
			"byteOffset":626412,
			"target":34962
		},
		{
			"buffer":0,
			"byteLength":15552,
			"byteOffset":636780,
			"target":34962
		},
		{
			"buffer":0,
			"byteLength":15552,
			"byteOffset":652332,
			"target":34962
		},
		{
			"buffer":0,
			"byteLength":10368,
			"byteOffset":667884,
			"target":34962
		},
		{
			"buffer":0,
			"byteLength":10368,
			"byteOffset":678252,
			"target":34962
		},
		{
			"buffer":0,
			"byteLength":15552,
			"byteOffset":688620,
			"target":34962
		},
		{
			"buffer":0,
			"byteLength":15552,
			"byteOffset":704172,
			"target":34962
		},
		{
			"buffer":0,
			"byteLength":10368,
			"byteOffset":719724,
			"target":34962
		},
		{
			"buffer":0,
			"byteLength":10368,
			"byteOffset":730092,
			"target":34962
		}
	],
	"buffers":[
		{
			"byteLength":740460,
			"uri":"terrain_2.bin"
		}
	]
}
