{
    "asset" : {
        "generator" : "Khronos glTF Blender I/O v1.2.75",
        "version" : "2.0"
    },
    "scene" : 0,
    "scenes" : [
        {
            "name" : "Scene",
            "nodes" : [
                0,
                1,
                2,
                3,
                4,
                5,
                6,
                7,
                8
            ]
        }
    ],
    "nodes" : [
        {
            "mesh" : 0,
            "name" : "Cube",
            "rotation" : [
                0.5,
                -0.5,
                -0.5,
                0.5
            ]
        },
        {
            "name" : "Light",
            "rotation" : [
                0.16907575726509094,
                0.7558803558349609,
                -0.27217137813568115,
                0.570947527885437
            ],
            "translation" : [
                23.325740814208984,
                12.724126815795898,
                -8.370081901550293
            ]
        },
        {
            "mesh" : 1,
            "name" : "\u041f\u043b\u043e\u0441\u043a\u043e\u0441\u0442\u044c",
            "rotation" : [
                0.49657925963401794,
                -0.5033770203590393,
                -0.5046640038490295,
                0.4953128397464752
            ],
            "scale" : [
                -1,
                1,
                1
            ]
        },
        {
            "mesh" : 2,
            "name" : "\u041f\u043b\u043e\u0441\u043a\u043e\u0441\u0442\u044c.001",
            "rotation" : [
                0.49657925963401794,
                -0.5033770203590393,
                -0.5046640038490295,
                0.4953128397464752
            ]
        },
        {
            "mesh" : 3,
            "name" : "\u041f\u043b\u043e\u0441\u043a\u043e\u0441\u0442\u044c.002",
            "rotation" : [
                0.49657925963401794,
                -0.5033770203590393,
                -0.5046640038490295,
                0.4953128397464752
            ],
            "scale" : [
                -1,
                1,
                1
            ]
        },
        {
            "mesh" : 4,
            "name" : "Cube.001",
            "rotation" : [
                0.49657925963401794,
                -0.5033770203590393,
                -0.5046640038490295,
                0.4953128397464752
            ],
            "scale" : [
                -1,
                1,
                1
            ]
        },
        {
            "mesh" : 5,
            "name" : "\u041f\u043b\u043e\u0441\u043a\u043e\u0441\u0442\u044c.003",
            "rotation" : [
                0.49657925963401794,
                -0.5033770203590393,
                -0.5046640038490295,
                0.4953128397464752
            ],
            "scale" : [
                -1,
                1,
                1
            ]
        },
        {
            "mesh" : 6,
            "name" : "\u041f\u043b\u043e\u0441\u043a\u043e\u0441\u0442\u044c.004",
            "rotation" : [
                0.49657925963401794,
                -0.5033770203590393,
                -0.5046640038490295,
                0.4953128397464752
            ]
        },
        {
            "mesh" : 7,
            "name" : "\u041f\u043b\u043e\u0441\u043a\u043e\u0441\u0442\u044c.005",
            "rotation" : [
                0.49657925963401794,
                -0.5033770203590393,
                -0.5046640038490295,
                0.4953128397464752
            ]
        }
    ],
    "materials" : [
        {
            "doubleSided" : true,
            "emissiveFactor" : [
                0,
                0,
                0
            ],
            "name" : "Material",
            "pbrMetallicRoughness" : {
                "baseColorFactor" : [
                    0.6375973224639893,
                    0.2422810196876526,
                    0.02732090651988983,
                    1
                ],
                "metallicFactor" : 0,
                "roughnessFactor" : 0.4000000059604645
            }
        },
        {
            "doubleSided" : true,
            "emissiveFactor" : [
                0,
                0,
                0
            ],
            "name" : "\u041c\u0430\u0442\u0435\u0440\u0438\u0430\u043b",
            "pbrMetallicRoughness" : {
                "baseColorFactor" : [
                    0.41254284977912903,
                    0.15592646598815918,
                    0.03071347251534462,
                    1
                ],
                "metallicFactor" : 0,
                "roughnessFactor" : 0.5
            }
        },
        {
            "doubleSided" : true,
            "emissiveFactor" : [
                0,
                0,
                0
            ],
            "name" : "\u041c\u0430\u0442\u0435\u0440\u0438\u0430\u043b.001",
            "pbrMetallicRoughness" : {
                "baseColorFactor" : [
                    0.6653876304626465,
                    0.361306756734848,
                    0.08650048822164536,
                    1
                ],
                "metallicFactor" : 0,
                "roughnessFactor" : 0.5
            }
        },
        {
            "doubleSided" : true,
            "emissiveFactor" : [
                0,
                0,
                0
            ],
            "name" : "\u041c\u0430\u0442\u0435\u0440\u0438\u0430\u043b.002",
            "pbrMetallicRoughness" : {
                "baseColorFactor" : [
                    0.2874409258365631,
                    0.09989871829748154,
                    0.025186870247125626,
                    1
                ],
                "metallicFactor" : 0,
                "roughnessFactor" : 0.5
            }
        },
        {
            "doubleSided" : true,
            "emissiveFactor" : [
                0,
                0,
                0
            ],
            "name" : "Material.001",
            "pbrMetallicRoughness" : {
                "baseColorFactor" : [
                    0.6375973224639893,
                    0.2422810196876526,
                    0.02732090651988983,
                    1
                ],
                "metallicFactor" : 0,
                "roughnessFactor" : 0.4000000059604645
            }
        },
        {
            "doubleSided" : true,
            "emissiveFactor" : [
                0,
                0,
                0
            ],
            "name" : "\u041c\u0430\u0442\u0435\u0440\u0438\u0430\u043b.003",
            "pbrMetallicRoughness" : {
                "baseColorFactor" : [
                    0.6653876304626465,
                    0.361306756734848,
                    0.08650048822164536,
                    1
                ],
                "metallicFactor" : 0,
                "roughnessFactor" : 0.5
            }
        },
        {
            "doubleSided" : true,
            "emissiveFactor" : [
                0,
                0,
                0
            ],
            "name" : "\u041c\u0430\u0442\u0435\u0440\u0438\u0430\u043b.004",
            "pbrMetallicRoughness" : {
                "baseColorFactor" : [
                    0.41254284977912903,
                    0.15592646598815918,
                    0.03071347251534462,
                    1
                ],
                "metallicFactor" : 0,
                "roughnessFactor" : 0.5
            }
        },
        {
            "doubleSided" : true,
            "emissiveFactor" : [
                0,
                0,
                0
            ],
            "name" : "\u041c\u0430\u0442\u0435\u0440\u0438\u0430\u043b.005",
            "pbrMetallicRoughness" : {
                "baseColorFactor" : [
                    0.2874409258365631,
                    0.09989871829748154,
                    0.025186870247125626,
                    1
                ],
                "metallicFactor" : 0,
                "roughnessFactor" : 0.5
            }
        }
    ],
    "meshes" : [
        {
            "name" : "Cube",
            "primitives" : [
                {
                    "attributes" : {
                        "POSITION" : 0,
                        "NORMAL" : 1,
                        "TEXCOORD_0" : 2
                    },
                    "indices" : 3,
                    "material" : 0
                }
            ]
        },
        {
            "name" : "\u041f\u043b\u043e\u0441\u043a\u043e\u0441\u0442\u044c",
            "primitives" : [
                {
                    "attributes" : {
                        "POSITION" : 4,
                        "NORMAL" : 5,
                        "TEXCOORD_0" : 6
                    },
                    "indices" : 7,
                    "material" : 1
                }
            ]
        },
        {
            "name" : "\u041f\u043b\u043e\u0441\u043a\u043e\u0441\u0442\u044c.001",
            "primitives" : [
                {
                    "attributes" : {
                        "POSITION" : 8,
                        "NORMAL" : 9,
                        "TEXCOORD_0" : 10
                    },
                    "indices" : 11,
                    "material" : 2
                }
            ]
        },
        {
            "name" : "\u041f\u043b\u043e\u0441\u043a\u043e\u0441\u0442\u044c.002",
            "primitives" : [
                {
                    "attributes" : {
                        "POSITION" : 12,
                        "NORMAL" : 13,
                        "TEXCOORD_0" : 14
                    },
                    "indices" : 15,
                    "material" : 3
                }
            ]
        },
        {
            "name" : "Cube.001",
            "primitives" : [
                {
                    "attributes" : {
                        "POSITION" : 16,
                        "NORMAL" : 17,
                        "TEXCOORD_0" : 18
                    },
                    "indices" : 19,
                    "material" : 4
                }
            ]
        },
        {
            "name" : "\u041f\u043b\u043e\u0441\u043a\u043e\u0441\u0442\u044c.003",
            "primitives" : [
                {
                    "attributes" : {
                        "POSITION" : 20,
                        "NORMAL" : 21,
                        "TEXCOORD_0" : 22
                    },
                    "indices" : 11,
                    "material" : 5
                }
            ]
        },
        {
            "name" : "\u041f\u043b\u043e\u0441\u043a\u043e\u0441\u0442\u044c.004",
            "primitives" : [
                {
                    "attributes" : {
                        "POSITION" : 23,
                        "NORMAL" : 24,
                        "TEXCOORD_0" : 25
                    },
                    "indices" : 7,
                    "material" : 6
                }
            ]
        },
        {
            "name" : "\u041f\u043b\u043e\u0441\u043a\u043e\u0441\u0442\u044c.005",
            "primitives" : [
                {
                    "attributes" : {
                        "POSITION" : 26,
                        "NORMAL" : 27,
                        "TEXCOORD_0" : 28
                    },
                    "indices" : 29,
                    "material" : 7
                }
            ]
        }
    ],
    "accessors" : [
        {
            "bufferView" : 0,
            "componentType" : 5126,
            "count" : 3406,
            "max" : [
                8.5,
                7.5,
                15.5
            ],
            "min" : [
                -0.5,
                0.5,
                -15.5
            ],
            "type" : "VEC3"
        },
        {
            "bufferView" : 1,
            "componentType" : 5126,
            "count" : 3406,
            "type" : "VEC3"
        },
        {
            "bufferView" : 2,
            "componentType" : 5126,
            "count" : 3406,
            "type" : "VEC2"
        },
        {
            "bufferView" : 3,
            "componentType" : 5123,
            "count" : 8880,
            "type" : "SCALAR"
        },
        {
            "bufferView" : 4,
            "componentType" : 5126,
            "count" : 1080,
            "max" : [
                8.5,
                6.5,
                16.5
            ],
            "min" : [
                4.5,
                -0.5,
                -15.5
            ],
            "type" : "VEC3"
        },
        {
            "bufferView" : 5,
            "componentType" : 5126,
            "count" : 1080,
            "type" : "VEC3"
        },
        {
            "bufferView" : 6,
            "componentType" : 5126,
            "count" : 1080,
            "type" : "VEC2"
        },
        {
            "bufferView" : 7,
            "componentType" : 5123,
            "count" : 2268,
            "type" : "SCALAR"
        },
        {
            "bufferView" : 8,
            "componentType" : 5126,
            "count" : 978,
            "max" : [
                8.5,
                7.5,
                16.5
            ],
            "min" : [
                -0.5,
                1.5,
                -13.5
            ],
            "type" : "VEC3"
        },
        {
            "bufferView" : 9,
            "componentType" : 5126,
            "count" : 978,
            "type" : "VEC3"
        },
        {
            "bufferView" : 10,
            "componentType" : 5126,
            "count" : 978,
            "type" : "VEC2"
        },
        {
            "bufferView" : 11,
            "componentType" : 5123,
            "count" : 2214,
            "type" : "SCALAR"
        },
        {
            "bufferView" : 12,
            "componentType" : 5126,
            "count" : 3609,
            "max" : [
                8.5,
                7.5,
                16.5
            ],
            "min" : [
                -0.5,
                -0.5,
                -15.5
            ],
            "type" : "VEC3"
        },
        {
            "bufferView" : 13,
            "componentType" : 5126,
            "count" : 3609,
            "type" : "VEC3"
        },
        {
            "bufferView" : 14,
            "componentType" : 5126,
            "count" : 3609,
            "type" : "VEC2"
        },
        {
            "bufferView" : 15,
            "componentType" : 5123,
            "count" : 9198,
            "type" : "SCALAR"
        },
        {
            "bufferView" : 16,
            "componentType" : 5126,
            "count" : 3175,
            "max" : [
                8.5,
                7.5,
                15.5
            ],
            "min" : [
                0.5,
                0.5,
                -15.5
            ],
            "type" : "VEC3"
        },
        {
            "bufferView" : 17,
            "componentType" : 5126,
            "count" : 3175,
            "type" : "VEC3"
        },
        {
            "bufferView" : 18,
            "componentType" : 5126,
            "count" : 3175,
            "type" : "VEC2"
        },
        {
            "bufferView" : 19,
            "componentType" : 5123,
            "count" : 8202,
            "type" : "SCALAR"
        },
        {
            "bufferView" : 20,
            "componentType" : 5126,
            "count" : 978,
            "max" : [
                8.5,
                7.5,
                16.5
            ],
            "min" : [
                -0.5,
                1.5,
                -13.5
            ],
            "type" : "VEC3"
        },
        {
            "bufferView" : 21,
            "componentType" : 5126,
            "count" : 978,
            "type" : "VEC3"
        },
        {
            "bufferView" : 22,
            "componentType" : 5126,
            "count" : 978,
            "type" : "VEC2"
        },
        {
            "bufferView" : 23,
            "componentType" : 5126,
            "count" : 1080,
            "max" : [
                8.5,
                6.5,
                16.5
            ],
            "min" : [
                4.5,
                -0.5,
                -15.5
            ],
            "type" : "VEC3"
        },
        {
            "bufferView" : 24,
            "componentType" : 5126,
            "count" : 1080,
            "type" : "VEC3"
        },
        {
            "bufferView" : 25,
            "componentType" : 5126,
            "count" : 1080,
            "type" : "VEC2"
        },
        {
            "bufferView" : 26,
            "componentType" : 5126,
            "count" : 3349,
            "max" : [
                8.5,
                7.5,
                16.5
            ],
            "min" : [
                0.5,
                -0.5,
                -15.5
            ],
            "type" : "VEC3"
        },
        {
            "bufferView" : 27,
            "componentType" : 5126,
            "count" : 3349,
            "type" : "VEC3"
        },
        {
            "bufferView" : 28,
            "componentType" : 5126,
            "count" : 3349,
            "type" : "VEC2"
        },
        {
            "bufferView" : 29,
            "componentType" : 5123,
            "count" : 8430,
            "type" : "SCALAR"
        }
    ],
    "bufferViews" : [
        {
            "buffer" : 0,
            "byteLength" : 40872,
            "byteOffset" : 0
        },
        {
            "buffer" : 0,
            "byteLength" : 40872,
            "byteOffset" : 40872
        },
        {
            "buffer" : 0,
            "byteLength" : 27248,
            "byteOffset" : 81744
        },
        {
            "buffer" : 0,
            "byteLength" : 17760,
            "byteOffset" : 108992
        },
        {
            "buffer" : 0,
            "byteLength" : 12960,
            "byteOffset" : 126752
        },
        {
            "buffer" : 0,
            "byteLength" : 12960,
            "byteOffset" : 139712
        },
        {
            "buffer" : 0,
            "byteLength" : 8640,
            "byteOffset" : 152672
        },
        {
            "buffer" : 0,
            "byteLength" : 4536,
            "byteOffset" : 161312
        },
        {
            "buffer" : 0,
            "byteLength" : 11736,
            "byteOffset" : 165848
        },
        {
            "buffer" : 0,
            "byteLength" : 11736,
            "byteOffset" : 177584
        },
        {
            "buffer" : 0,
            "byteLength" : 7824,
            "byteOffset" : 189320
        },
        {
            "buffer" : 0,
            "byteLength" : 4428,
            "byteOffset" : 197144
        },
        {
            "buffer" : 0,
            "byteLength" : 43308,
            "byteOffset" : 201572
        },
        {
            "buffer" : 0,
            "byteLength" : 43308,
            "byteOffset" : 244880
        },
        {
            "buffer" : 0,
            "byteLength" : 28872,
            "byteOffset" : 288188
        },
        {
            "buffer" : 0,
            "byteLength" : 18396,
            "byteOffset" : 317060
        },
        {
            "buffer" : 0,
            "byteLength" : 38100,
            "byteOffset" : 335456
        },
        {
            "buffer" : 0,
            "byteLength" : 38100,
            "byteOffset" : 373556
        },
        {
            "buffer" : 0,
            "byteLength" : 25400,
            "byteOffset" : 411656
        },
        {
            "buffer" : 0,
            "byteLength" : 16404,
            "byteOffset" : 437056
        },
        {
            "buffer" : 0,
            "byteLength" : 11736,
            "byteOffset" : 453460
        },
        {
            "buffer" : 0,
            "byteLength" : 11736,
            "byteOffset" : 465196
        },
        {
            "buffer" : 0,
            "byteLength" : 7824,
            "byteOffset" : 476932
        },
        {
            "buffer" : 0,
            "byteLength" : 12960,
            "byteOffset" : 484756
        },
        {
            "buffer" : 0,
            "byteLength" : 12960,
            "byteOffset" : 497716
        },
        {
            "buffer" : 0,
            "byteLength" : 8640,
            "byteOffset" : 510676
        },
        {
            "buffer" : 0,
            "byteLength" : 40188,
            "byteOffset" : 519316
        },
        {
            "buffer" : 0,
            "byteLength" : 40188,
            "byteOffset" : 559504
        },
        {
            "buffer" : 0,
            "byteLength" : 26792,
            "byteOffset" : 599692
        },
        {
            "buffer" : 0,
            "byteLength" : 16860,
            "byteOffset" : 626484
        }
    ],
    "buffers" : [
        {
            "byteLength" : 643344,
            "uri" : "data:application/octet-stream;base64,"
        }
    ]
}
