{
    "asset" : {
        "generator" : "Khronos glTF Blender I/O v1.2.75",
        "version" : "2.0"
    },
    "scene" : 0,
    "scenes" : [
        {
            "name" : "Scene",
            "nodes" : [
                0,
                1
            ]
        }
    ],
    "nodes" : [
        {
            "name" : "Light",
            "rotation" : [
                0.16907575726509094,
                0.7558803558349609,
                -0.27217137813568115,
                0.570947527885437
            ],
            "translation" : [
                23.325740814208984,
                12.724126815795898,
                -8.370081901550293
            ]
        },
        {
            "mesh" : 0,
            "name" : "\u041f\u043b\u043e\u0441\u043a\u043e\u0441\u0442\u044c",
            "rotation" : [
                0.7071067690849304,
                0,
                0,
                0.7071067690849304
            ]
        }
    ],
    "materials" : [
        {
            "doubleSided" : true,
            "emissiveFactor" : [
                0,
                0,
                0
            ],
            "name" : "Material",
            "pbrMetallicRoughness" : {
                "baseColorFactor" : [
                    0.6375973224639893,
                    0.2422810196876526,
                    0.02732090651988983,
                    1
                ],
                "metallicFactor" : 0,
                "roughnessFactor" : 0.4000000059604645
            }
        },
        {
            "doubleSided" : true,
            "emissiveFactor" : [
                0,
                0,
                0
            ],
            "name" : "\u041c\u0430\u0442\u0435\u0440\u0438\u0430\u043b.001",
            "pbrMetallicRoughness" : {
                "baseColorFactor" : [
                    0.6653876304626465,
                    0.361306756734848,
                    0.08650048822164536,
                    1
                ],
                "metallicFactor" : 0,
                "roughnessFactor" : 0.5
            }
        },
        {
            "doubleSided" : true,
            "emissiveFactor" : [
                0,
                0,
                0
            ],
            "name" : "\u041c\u0430\u0442\u0435\u0440\u0438\u0430\u043b.002",
            "pbrMetallicRoughness" : {
                "baseColorFactor" : [
                    0.2874409258365631,
                    0.09989871829748154,
                    0.025186870247125626,
                    1
                ],
                "metallicFactor" : 0,
                "roughnessFactor" : 0.5
            }
        }
    ],
    "meshes" : [
        {
            "name" : "\u041f\u043b\u043e\u0441\u043a\u043e\u0441\u0442\u044c",
            "primitives" : [
                {
                    "attributes" : {
                        "POSITION" : 0,
                        "NORMAL" : 1,
                        "TEXCOORD_0" : 2,
                        "TEXCOORD_1" : 3
                    },
                    "indices" : 4,
                    "material" : 0
                },
                {
                    "attributes" : {
                        "POSITION" : 5,
                        "NORMAL" : 6,
                        "TEXCOORD_0" : 7,
                        "TEXCOORD_1" : 8
                    },
                    "indices" : 9,
                    "material" : 1
                },
                {
                    "attributes" : {
                        "POSITION" : 10,
                        "NORMAL" : 11,
                        "TEXCOORD_0" : 12,
                        "TEXCOORD_1" : 13
                    },
                    "indices" : 14,
                    "material" : 2
                }
            ]
        }
    ],
    "accessors" : [
        {
            "bufferView" : 0,
            "componentType" : 5126,
            "count" : 2505,
            "max" : [
                10.5,
                4.5,
                5.5
            ],
            "min" : [
                -8.5,
                0.5,
                -5.5
            ],
            "type" : "VEC3"
        },
        {
            "bufferView" : 1,
            "componentType" : 5126,
            "count" : 2505,
            "type" : "VEC3"
        },
        {
            "bufferView" : 2,
            "componentType" : 5126,
            "count" : 2505,
            "type" : "VEC2"
        },
        {
            "bufferView" : 3,
            "componentType" : 5126,
            "count" : 2505,
            "type" : "VEC2"
        },
        {
            "bufferView" : 4,
            "componentType" : 5123,
            "count" : 7188,
            "type" : "SCALAR"
        },
        {
            "bufferView" : 5,
            "componentType" : 5126,
            "count" : 174,
            "max" : [
                3.5,
                4.5,
                5.5
            ],
            "min" : [
                -2.5,
                1.5,
                -5.5
            ],
            "type" : "VEC3"
        },
        {
            "bufferView" : 6,
            "componentType" : 5126,
            "count" : 174,
            "type" : "VEC3"
        },
        {
            "bufferView" : 7,
            "componentType" : 5126,
            "count" : 174,
            "type" : "VEC2"
        },
        {
            "bufferView" : 8,
            "componentType" : 5126,
            "count" : 174,
            "type" : "VEC2"
        },
        {
            "bufferView" : 9,
            "componentType" : 5123,
            "count" : 384,
            "type" : "SCALAR"
        },
        {
            "bufferView" : 10,
            "componentType" : 5126,
            "count" : 1129,
            "max" : [
                5.5,
                5.5,
                7.5
            ],
            "min" : [
                -5.5,
                -0.5,
                -4.5
            ],
            "type" : "VEC3"
        },
        {
            "bufferView" : 11,
            "componentType" : 5126,
            "count" : 1129,
            "type" : "VEC3"
        },
        {
            "bufferView" : 12,
            "componentType" : 5126,
            "count" : 1129,
            "type" : "VEC2"
        },
        {
            "bufferView" : 13,
            "componentType" : 5126,
            "count" : 1129,
            "type" : "VEC2"
        },
        {
            "bufferView" : 14,
            "componentType" : 5123,
            "count" : 3282,
            "type" : "SCALAR"
        }
    ],
    "bufferViews" : [
        {
            "buffer" : 0,
            "byteLength" : 30060,
            "byteOffset" : 0
        },
        {
            "buffer" : 0,
            "byteLength" : 30060,
            "byteOffset" : 30060
        },
        {
            "buffer" : 0,
            "byteLength" : 20040,
            "byteOffset" : 60120
        },
        {
            "buffer" : 0,
            "byteLength" : 20040,
            "byteOffset" : 80160
        },
        {
            "buffer" : 0,
            "byteLength" : 14376,
            "byteOffset" : 100200
        },
        {
            "buffer" : 0,
            "byteLength" : 2088,
            "byteOffset" : 114576
        },
        {
            "buffer" : 0,
            "byteLength" : 2088,
            "byteOffset" : 116664
        },
        {
            "buffer" : 0,
            "byteLength" : 1392,
            "byteOffset" : 118752
        },
        {
            "buffer" : 0,
            "byteLength" : 1392,
            "byteOffset" : 120144
        },
        {
            "buffer" : 0,
            "byteLength" : 768,
            "byteOffset" : 121536
        },
        {
            "buffer" : 0,
            "byteLength" : 13548,
            "byteOffset" : 122304
        },
        {
            "buffer" : 0,
            "byteLength" : 13548,
            "byteOffset" : 135852
        },
        {
            "buffer" : 0,
            "byteLength" : 9032,
            "byteOffset" : 149400
        },
        {
            "buffer" : 0,
            "byteLength" : 9032,
            "byteOffset" : 158432
        },
        {
            "buffer" : 0,
            "byteLength" : 6564,
            "byteOffset" : 167464
        }
    ],
    "buffers" : [
        {
            "byteLength" : 174028,
            "uri" : "data:application/octet-stream;base64,"
        }
    ]
}
