{
    "asset" : {
        "generator" : "Khronos glTF Blender I/O v1.2.75",
        "version" : "2.0"
    },
    "scene" : 0,
    "scenes" : [
        {
            "name" : "Scene",
            "nodes" : [
                0,
                1
            ]
        }
    ],
    "nodes" : [
        {
            "mesh" : 0,
            "name" : "Cube",
            "rotation" : [
                0.5000001192092896,
                -0.5000000596046448,
                -0.49999991059303284,
                0.49999988079071045
            ],
            "translation" : [
                3.079496383666992,
                0,
                -4.703342437744141
            ]
        },
        {
            "name" : "Light",
            "rotation" : [
                0.2899087965488434,
                0.32379212975502014,
                -0.13644321262836456,
                0.8902217745780945
            ],
            "translation" : [
                20.246244430541992,
                12.724126815795898,
                4.751557350158691
            ]
        }
    ],
    "materials" : [
        {
            "doubleSided" : true,
            "emissiveFactor" : [
                0,
                0,
                0
            ],
            "name" : "Material",
            "pbrMetallicRoughness" : {
                "baseColorFactor" : [
                    0.6375973224639893,
                    0.2422810196876526,
                    0.02732090651988983,
                    1
                ],
                "metallicFactor" : 0,
                "roughnessFactor" : 0.4000000059604645
            }
        },
        {
            "doubleSided" : true,
            "emissiveFactor" : [
                0,
                0,
                0
            ],
            "name" : "\u041c\u0430\u0442\u0435\u0440\u0438\u0430\u043b",
            "pbrMetallicRoughness" : {
                "baseColorFactor" : [
                    0.41254284977912903,
                    0.15592646598815918,
                    0.03071347251534462,
                    1
                ],
                "metallicFactor" : 0,
                "roughnessFactor" : 0.5
            }
        },
        {
            "doubleSided" : true,
            "emissiveFactor" : [
                0,
                0,
                0
            ],
            "name" : "\u041c\u0430\u0442\u0435\u0440\u0438\u0430\u043b.001",
            "pbrMetallicRoughness" : {
                "baseColorFactor" : [
                    0.6653876304626465,
                    0.361306756734848,
                    0.08650048822164536,
                    1
                ],
                "metallicFactor" : 0,
                "roughnessFactor" : 0.5
            }
        },
        {
            "doubleSided" : true,
            "emissiveFactor" : [
                0,
                0,
                0
            ],
            "name" : "\u041c\u0430\u0442\u0435\u0440\u0438\u0430\u043b.002",
            "pbrMetallicRoughness" : {
                "baseColorFactor" : [
                    0.2874409258365631,
                    0.09989871829748154,
                    0.025186870247125626,
                    1
                ],
                "metallicFactor" : 0,
                "roughnessFactor" : 0.5
            }
        },
        {
            "doubleSided" : true,
            "emissiveFactor" : [
                0,
                0,
                0
            ],
            "name" : "Material.001",
            "pbrMetallicRoughness" : {
                "baseColorFactor" : [
                    0.6375973224639893,
                    0.2422810196876526,
                    0.02732090651988983,
                    1
                ],
                "metallicFactor" : 0,
                "roughnessFactor" : 0.4000000059604645
            }
        },
        {
            "doubleSided" : true,
            "emissiveFactor" : [
                0,
                0,
                0
            ],
            "name" : "\u041c\u0430\u0442\u0435\u0440\u0438\u0430\u043b.003",
            "pbrMetallicRoughness" : {
                "baseColorFactor" : [
                    0.6653876304626465,
                    0.361306756734848,
                    0.08650048822164536,
                    1
                ],
                "metallicFactor" : 0,
                "roughnessFactor" : 0.5
            }
        },
        {
            "doubleSided" : true,
            "emissiveFactor" : [
                0,
                0,
                0
            ],
            "name" : "\u041c\u0430\u0442\u0435\u0440\u0438\u0430\u043b.004",
            "pbrMetallicRoughness" : {
                "baseColorFactor" : [
                    0.41254284977912903,
                    0.15592646598815918,
                    0.03071347251534462,
                    1
                ],
                "metallicFactor" : 0,
                "roughnessFactor" : 0.5
            }
        },
        {
            "doubleSided" : true,
            "emissiveFactor" : [
                0,
                0,
                0
            ],
            "name" : "\u041c\u0430\u0442\u0435\u0440\u0438\u0430\u043b.005",
            "pbrMetallicRoughness" : {
                "baseColorFactor" : [
                    0.2874409258365631,
                    0.09989871829748154,
                    0.025186870247125626,
                    1
                ],
                "metallicFactor" : 0,
                "roughnessFactor" : 0.5
            }
        }
    ],
    "meshes" : [
        {
            "name" : "Cube",
            "primitives" : [
                {
                    "attributes" : {
                        "POSITION" : 0,
                        "NORMAL" : 1,
                        "TEXCOORD_0" : 2,
                        "TEXCOORD_1" : 3
                    },
                    "indices" : 4,
                    "material" : 0
                },
                {
                    "attributes" : {
                        "POSITION" : 5,
                        "NORMAL" : 6,
                        "TEXCOORD_0" : 7,
                        "TEXCOORD_1" : 8
                    },
                    "indices" : 9,
                    "material" : 1
                },
                {
                    "attributes" : {
                        "POSITION" : 10,
                        "NORMAL" : 11,
                        "TEXCOORD_0" : 12,
                        "TEXCOORD_1" : 13
                    },
                    "indices" : 14,
                    "material" : 2
                },
                {
                    "attributes" : {
                        "POSITION" : 15,
                        "NORMAL" : 16,
                        "TEXCOORD_0" : 17,
                        "TEXCOORD_1" : 18
                    },
                    "indices" : 19,
                    "material" : 3
                },
                {
                    "attributes" : {
                        "POSITION" : 20,
                        "NORMAL" : 21,
                        "TEXCOORD_0" : 22,
                        "TEXCOORD_1" : 23
                    },
                    "indices" : 24,
                    "material" : 4
                },
                {
                    "attributes" : {
                        "POSITION" : 25,
                        "NORMAL" : 26,
                        "TEXCOORD_0" : 27,
                        "TEXCOORD_1" : 28
                    },
                    "indices" : 14,
                    "material" : 5
                },
                {
                    "attributes" : {
                        "POSITION" : 29,
                        "NORMAL" : 30,
                        "TEXCOORD_0" : 31,
                        "TEXCOORD_1" : 32
                    },
                    "indices" : 9,
                    "material" : 6
                },
                {
                    "attributes" : {
                        "POSITION" : 33,
                        "NORMAL" : 34,
                        "TEXCOORD_0" : 35,
                        "TEXCOORD_1" : 36
                    },
                    "indices" : 37,
                    "material" : 7
                }
            ]
        }
    ],
    "accessors" : [
        {
            "bufferView" : 0,
            "componentType" : 5126,
            "count" : 3406,
            "max" : [
                8.5,
                7.5,
                15.5
            ],
            "min" : [
                -0.5,
                0.5,
                -15.5
            ],
            "type" : "VEC3"
        },
        {
            "bufferView" : 1,
            "componentType" : 5126,
            "count" : 3406,
            "type" : "VEC3"
        },
        {
            "bufferView" : 2,
            "componentType" : 5126,
            "count" : 3406,
            "type" : "VEC2"
        },
        {
            "bufferView" : 3,
            "componentType" : 5126,
            "count" : 3406,
            "type" : "VEC2"
        },
        {
            "bufferView" : 4,
            "componentType" : 5123,
            "count" : 8880,
            "type" : "SCALAR"
        },
        {
            "bufferView" : 5,
            "componentType" : 5126,
            "count" : 1080,
            "max" : [
                -4.5,
                6.5,
                16.5
            ],
            "min" : [
                -8.5,
                -0.5,
                -15.5
            ],
            "type" : "VEC3"
        },
        {
            "bufferView" : 6,
            "componentType" : 5126,
            "count" : 1080,
            "type" : "VEC3"
        },
        {
            "bufferView" : 7,
            "componentType" : 5126,
            "count" : 1080,
            "type" : "VEC2"
        },
        {
            "bufferView" : 8,
            "componentType" : 5126,
            "count" : 1080,
            "type" : "VEC2"
        },
        {
            "bufferView" : 9,
            "componentType" : 5123,
            "count" : 2268,
            "type" : "SCALAR"
        },
        {
            "bufferView" : 10,
            "componentType" : 5126,
            "count" : 978,
            "max" : [
                8.5,
                7.5,
                16.5
            ],
            "min" : [
                -0.5,
                1.5,
                -13.5
            ],
            "type" : "VEC3"
        },
        {
            "bufferView" : 11,
            "componentType" : 5126,
            "count" : 978,
            "type" : "VEC3"
        },
        {
            "bufferView" : 12,
            "componentType" : 5126,
            "count" : 978,
            "type" : "VEC2"
        },
        {
            "bufferView" : 13,
            "componentType" : 5126,
            "count" : 978,
            "type" : "VEC2"
        },
        {
            "bufferView" : 14,
            "componentType" : 5123,
            "count" : 2214,
            "type" : "SCALAR"
        },
        {
            "bufferView" : 15,
            "componentType" : 5126,
            "count" : 3609,
            "max" : [
                0.5,
                7.5,
                16.5
            ],
            "min" : [
                -8.5,
                -0.5,
                -15.5
            ],
            "type" : "VEC3"
        },
        {
            "bufferView" : 16,
            "componentType" : 5126,
            "count" : 3609,
            "type" : "VEC3"
        },
        {
            "bufferView" : 17,
            "componentType" : 5126,
            "count" : 3609,
            "type" : "VEC2"
        },
        {
            "bufferView" : 18,
            "componentType" : 5126,
            "count" : 3609,
            "type" : "VEC2"
        },
        {
            "bufferView" : 19,
            "componentType" : 5123,
            "count" : 9198,
            "type" : "SCALAR"
        },
        {
            "bufferView" : 20,
            "componentType" : 5126,
            "count" : 3175,
            "max" : [
                -0.5,
                7.5,
                15.5
            ],
            "min" : [
                -8.5,
                0.5,
                -15.5
            ],
            "type" : "VEC3"
        },
        {
            "bufferView" : 21,
            "componentType" : 5126,
            "count" : 3175,
            "type" : "VEC3"
        },
        {
            "bufferView" : 22,
            "componentType" : 5126,
            "count" : 3175,
            "type" : "VEC2"
        },
        {
            "bufferView" : 23,
            "componentType" : 5126,
            "count" : 3175,
            "type" : "VEC2"
        },
        {
            "bufferView" : 24,
            "componentType" : 5123,
            "count" : 8202,
            "type" : "SCALAR"
        },
        {
            "bufferView" : 25,
            "componentType" : 5126,
            "count" : 978,
            "max" : [
                0.5,
                7.5,
                16.5
            ],
            "min" : [
                -8.5,
                1.5,
                -13.5
            ],
            "type" : "VEC3"
        },
        {
            "bufferView" : 26,
            "componentType" : 5126,
            "count" : 978,
            "type" : "VEC3"
        },
        {
            "bufferView" : 27,
            "componentType" : 5126,
            "count" : 978,
            "type" : "VEC2"
        },
        {
            "bufferView" : 28,
            "componentType" : 5126,
            "count" : 978,
            "type" : "VEC2"
        },
        {
            "bufferView" : 29,
            "componentType" : 5126,
            "count" : 1080,
            "max" : [
                8.5,
                6.5,
                16.5
            ],
            "min" : [
                4.5,
                -0.5,
                -15.5
            ],
            "type" : "VEC3"
        },
        {
            "bufferView" : 30,
            "componentType" : 5126,
            "count" : 1080,
            "type" : "VEC3"
        },
        {
            "bufferView" : 31,
            "componentType" : 5126,
            "count" : 1080,
            "type" : "VEC2"
        },
        {
            "bufferView" : 32,
            "componentType" : 5126,
            "count" : 1080,
            "type" : "VEC2"
        },
        {
            "bufferView" : 33,
            "componentType" : 5126,
            "count" : 3349,
            "max" : [
                8.5,
                7.5,
                16.5
            ],
            "min" : [
                0.5,
                -0.5,
                -15.5
            ],
            "type" : "VEC3"
        },
        {
            "bufferView" : 34,
            "componentType" : 5126,
            "count" : 3349,
            "type" : "VEC3"
        },
        {
            "bufferView" : 35,
            "componentType" : 5126,
            "count" : 3349,
            "type" : "VEC2"
        },
        {
            "bufferView" : 36,
            "componentType" : 5126,
            "count" : 3349,
            "type" : "VEC2"
        },
        {
            "bufferView" : 37,
            "componentType" : 5123,
            "count" : 8430,
            "type" : "SCALAR"
        }
    ],
    "bufferViews" : [
        {
            "buffer" : 0,
            "byteLength" : 40872,
            "byteOffset" : 0
        },
        {
            "buffer" : 0,
            "byteLength" : 40872,
            "byteOffset" : 40872
        },
        {
            "buffer" : 0,
            "byteLength" : 27248,
            "byteOffset" : 81744
        },
        {
            "buffer" : 0,
            "byteLength" : 27248,
            "byteOffset" : 108992
        },
        {
            "buffer" : 0,
            "byteLength" : 17760,
            "byteOffset" : 136240
        },
        {
            "buffer" : 0,
            "byteLength" : 12960,
            "byteOffset" : 154000
        },
        {
            "buffer" : 0,
            "byteLength" : 12960,
            "byteOffset" : 166960
        },
        {
            "buffer" : 0,
            "byteLength" : 8640,
            "byteOffset" : 179920
        },
        {
            "buffer" : 0,
            "byteLength" : 8640,
            "byteOffset" : 188560
        },
        {
            "buffer" : 0,
            "byteLength" : 4536,
            "byteOffset" : 197200
        },
        {
            "buffer" : 0,
            "byteLength" : 11736,
            "byteOffset" : 201736
        },
        {
            "buffer" : 0,
            "byteLength" : 11736,
            "byteOffset" : 213472
        },
        {
            "buffer" : 0,
            "byteLength" : 7824,
            "byteOffset" : 225208
        },
        {
            "buffer" : 0,
            "byteLength" : 7824,
            "byteOffset" : 233032
        },
        {
            "buffer" : 0,
            "byteLength" : 4428,
            "byteOffset" : 240856
        },
        {
            "buffer" : 0,
            "byteLength" : 43308,
            "byteOffset" : 245284
        },
        {
            "buffer" : 0,
            "byteLength" : 43308,
            "byteOffset" : 288592
        },
        {
            "buffer" : 0,
            "byteLength" : 28872,
            "byteOffset" : 331900
        },
        {
            "buffer" : 0,
            "byteLength" : 28872,
            "byteOffset" : 360772
        },
        {
            "buffer" : 0,
            "byteLength" : 18396,
            "byteOffset" : 389644
        },
        {
            "buffer" : 0,
            "byteLength" : 38100,
            "byteOffset" : 408040
        },
        {
            "buffer" : 0,
            "byteLength" : 38100,
            "byteOffset" : 446140
        },
        {
            "buffer" : 0,
            "byteLength" : 25400,
            "byteOffset" : 484240
        },
        {
            "buffer" : 0,
            "byteLength" : 25400,
            "byteOffset" : 509640
        },
        {
            "buffer" : 0,
            "byteLength" : 16404,
            "byteOffset" : 535040
        },
        {
            "buffer" : 0,
            "byteLength" : 11736,
            "byteOffset" : 551444
        },
        {
            "buffer" : 0,
            "byteLength" : 11736,
            "byteOffset" : 563180
        },
        {
            "buffer" : 0,
            "byteLength" : 7824,
            "byteOffset" : 574916
        },
        {
            "buffer" : 0,
            "byteLength" : 7824,
            "byteOffset" : 582740
        },
        {
            "buffer" : 0,
            "byteLength" : 12960,
            "byteOffset" : 590564
        },
        {
            "buffer" : 0,
            "byteLength" : 12960,
            "byteOffset" : 603524
        },
        {
            "buffer" : 0,
            "byteLength" : 8640,
            "byteOffset" : 616484
        },
        {
            "buffer" : 0,
            "byteLength" : 8640,
            "byteOffset" : 625124
        },
        {
            "buffer" : 0,
            "byteLength" : 40188,
            "byteOffset" : 633764
        },
        {
            "buffer" : 0,
            "byteLength" : 40188,
            "byteOffset" : 673952
        },
        {
            "buffer" : 0,
            "byteLength" : 26792,
            "byteOffset" : 714140
        },
        {
            "buffer" : 0,
            "byteLength" : 26792,
            "byteOffset" : 740932
        },
        {
            "buffer" : 0,
            "byteLength" : 16860,
            "byteOffset" : 767724
        }
    ],
    "buffers" : [
        {
            "byteLength" : 784584,
            "uri" : "data:application/octet-stream;base64,"
        }
    ]
}
