{
    "asset" : {
        "generator" : "Khronos glTF Blender I/O v1.2.75",
        "version" : "2.0"
    },
    "scene" : 0,
    "scenes" : [
        {
            "name" : "Scene",
            "nodes" : [
                2
            ]
        }
    ],
    "nodes" : [
        {
            "mesh" : 0,
            "name" : "Object_2",
            "rotation" : [
                0.5026343464851379,
                -0.4971793591976166,
                0.4973500669002533,
                0.5028070211410522
            ],
            "translation" : [
                -6.830585956573486,
                5.761385440826416,
                0.4749169945716858
            ]
        },
        {
            "children" : [
                0
            ],
            "name" : "Geode"
        },
        {
            "children" : [
                1
            ],
            "name" : "Sketchfab_model",
            "rotation" : [
                -0.7071068286895752,
                0,
                0,
                0.7071068286895752
            ]
        }
    ],
    "materials" : [
        {
            "doubleSided" : true,
            "emissiveFactor" : [
                0,
                0,
                0
            ],
            "name" : "Scene_-_Root",
            "pbrMetallicRoughness" : {
                "metallicFactor" : 0,
                "roughnessFactor" : 0.6000000238418579
            }
        }
    ],
    "meshes" : [
        {
            "name" : "Object_0",
            "primitives" : [
                {
                    "attributes" : {
                        "POSITION" : 0,
                        "NORMAL" : 1,
                        "TEXCOORD_0" : 2,
                        "COLOR_0" : 3
                    },
                    "indices" : 4,
                    "material" : 0
                }
            ]
        }
    ],
    "accessors" : [
        {
            "bufferView" : 0,
            "componentType" : 5126,
            "count" : 9367,
            "max" : [
                16,
                6,
                6
            ],
            "min" : [
                -18,
                -19,
                0
            ],
            "type" : "VEC3"
        },
        {
            "bufferView" : 1,
            "componentType" : 5126,
            "count" : 9367,
            "type" : "VEC3"
        },
        {
            "bufferView" : 2,
            "componentType" : 5126,
            "count" : 9367,
            "type" : "VEC2"
        },
        {
            "bufferView" : 3,
            "componentType" : 5126,
            "count" : 9367,
            "type" : "VEC4"
        },
        {
            "bufferView" : 4,
            "componentType" : 5123,
            "count" : 11352,
            "type" : "SCALAR"
        }
    ],
    "bufferViews" : [
        {
            "buffer" : 0,
            "byteLength" : 112404,
            "byteOffset" : 0
        },
        {
            "buffer" : 0,
            "byteLength" : 112404,
            "byteOffset" : 112404
        },
        {
            "buffer" : 0,
            "byteLength" : 74936,
            "byteOffset" : 224808
        },
        {
            "buffer" : 0,
            "byteLength" : 149872,
            "byteOffset" : 299744
        },
        {
            "buffer" : 0,
            "byteLength" : 22704,
            "byteOffset" : 449616
        }
    ],
    "buffers" : [
        {
            "byteLength" : 472320,
            "uri" : "data:application/octet-stream;base64,"
        }
    ]
}
