{
    "asset" : {
        "generator" : "Khronos glTF Blender I/O v1.2.75",
        "version" : "2.0"
    },
    "scene" : 0,
    "scenes" : [
        {
            "name" : "Scene",
            "nodes" : [
                2
            ]
        }
    ],
    "nodes" : [
        {
            "mesh" : 0,
            "name" : "Object_2",
            "rotation" : [
                0.5034787654876709,
                -0.4980146288871765,
                0.49651360511779785,
                0.501961350440979
            ],
            "translation" : [
                -8.922947883605957,
                5.761385440826416,
                0
            ]
        },
        {
            "children" : [
                0
            ],
            "name" : "Geode"
        },
        {
            "children" : [
                1
            ],
            "name" : "Sketchfab_model",
            "rotation" : [
                -0.7071068286895752,
                0,
                0,
                0.7071068286895752
            ]
        }
    ],
    "materials" : [
        {
            "doubleSided" : true,
            "emissiveFactor" : [
                0,
                0,
                0
            ],
            "name" : "Scene_-_Root",
            "pbrMetallicRoughness" : {
                "metallicFactor" : 0,
                "roughnessFactor" : 0.6000000238418579
            }
        }
    ],
    "meshes" : [
        {
            "name" : "Object_0",
            "primitives" : [
                {
                    "attributes" : {
                        "POSITION" : 0,
                        "NORMAL" : 1,
                        "TEXCOORD_0" : 2,
                        "COLOR_0" : 3
                    },
                    "indices" : 4,
                    "material" : 0
                }
            ]
        }
    ],
    "accessors" : [
        {
            "bufferView" : 0,
            "componentType" : 5126,
            "count" : 12358,
            "max" : [
                16,
                14,
                12
            ],
            "min" : [
                -18,
                -19,
                0
            ],
            "type" : "VEC3"
        },
        {
            "bufferView" : 1,
            "componentType" : 5126,
            "count" : 12358,
            "type" : "VEC3"
        },
        {
            "bufferView" : 2,
            "componentType" : 5126,
            "count" : 12358,
            "type" : "VEC2"
        },
        {
            "bufferView" : 3,
            "componentType" : 5126,
            "count" : 12358,
            "type" : "VEC4"
        },
        {
            "bufferView" : 4,
            "componentType" : 5123,
            "count" : 17220,
            "type" : "SCALAR"
        }
    ],
    "bufferViews" : [
        {
            "buffer" : 0,
            "byteLength" : 148296,
            "byteOffset" : 0
        },
        {
            "buffer" : 0,
            "byteLength" : 148296,
            "byteOffset" : 148296
        },
        {
            "buffer" : 0,
            "byteLength" : 98864,
            "byteOffset" : 296592
        },
        {
            "buffer" : 0,
            "byteLength" : 197728,
            "byteOffset" : 395456
        },
        {
            "buffer" : 0,
            "byteLength" : 34440,
            "byteOffset" : 593184
        }
    ],
    "buffers" : [
        {
            "byteLength" : 627624,
            "uri" : "data:application/octet-stream;base64,"
        }
    ]
}
