{
    "asset" : {
        "generator" : "Khronos glTF Blender I/O v1.2.75",
        "version" : "2.0"
    },
    "scene" : 0,
    "scenes" : [
        {
            "name" : "Scene",
            "nodes" : [
                2
            ]
        }
    ],
    "nodes" : [
        {
            "mesh" : 0,
            "name" : "Object_2.001",
            "rotation" : [
                0.4978105127811432,
                -0.504199206829071,
                0.5021541118621826,
                0.4957914650440216
            ],
            "translation" : [
                -6.454728603363037,
                5.806615352630615,
                0
            ]
        },
        {
            "children" : [
                0
            ],
            "name" : "Geode.001"
        },
        {
            "children" : [
                1
            ],
            "name" : "Sketchfab_model.001",
            "rotation" : [
                -0.7071068286895752,
                0,
                0,
                0.7071068286895752
            ]
        }
    ],
    "materials" : [
        {
            "doubleSided" : true,
            "emissiveFactor" : [
                0,
                0,
                0
            ],
            "name" : "Scene_-_Root.001",
            "pbrMetallicRoughness" : {
                "metallicFactor" : 0,
                "roughnessFactor" : 0.6000000238418579
            }
        }
    ],
    "meshes" : [
        {
            "name" : "Object_0.001",
            "primitives" : [
                {
                    "attributes" : {
                        "POSITION" : 0,
                        "NORMAL" : 1,
                        "TEXCOORD_0" : 2,
                        "COLOR_0" : 3
                    },
                    "indices" : 4,
                    "material" : 0
                }
            ]
        }
    ],
    "accessors" : [
        {
            "bufferView" : 0,
            "componentType" : 5126,
            "count" : 1715,
            "max" : [
                8.023210525512695,
                4.039546489715576,
                12
            ],
            "min" : [
                -10.206108093261719,
                -17,
                5.9299821853637695
            ],
            "type" : "VEC3"
        },
        {
            "bufferView" : 1,
            "componentType" : 5126,
            "count" : 1715,
            "type" : "VEC3"
        },
        {
            "bufferView" : 2,
            "componentType" : 5126,
            "count" : 1715,
            "type" : "VEC2"
        },
        {
            "bufferView" : 3,
            "componentType" : 5126,
            "count" : 1715,
            "type" : "VEC4"
        },
        {
            "bufferView" : 4,
            "componentType" : 5123,
            "count" : 4707,
            "type" : "SCALAR"
        }
    ],
    "bufferViews" : [
        {
            "buffer" : 0,
            "byteLength" : 20580,
            "byteOffset" : 0
        },
        {
            "buffer" : 0,
            "byteLength" : 20580,
            "byteOffset" : 20580
        },
        {
            "buffer" : 0,
            "byteLength" : 13720,
            "byteOffset" : 41160
        },
        {
            "buffer" : 0,
            "byteLength" : 27440,
            "byteOffset" : 54880
        },
        {
            "buffer" : 0,
            "byteLength" : 9414,
            "byteOffset" : 82320
        }
    ],
    "buffers" : [
        {
            "byteLength" : 91736,
            "uri" : "data:application/octet-stream;base64,"
        }
    ]
}
