{
  "accessors": [
    {
      "bufferView": 2,
      "componentType": 5126,
      "count": 24,
      "max": [
        5.0,
        1.0,
        1.0000001192092896
      ],
      "min": [
        -5.0,
        0.9237645268440247,
        -1.0000001192092896
      ],
      "type": "VEC3"
    },
    {
      "bufferView": 2,
      "byteOffset": 288,
      "componentType": 5126,
      "count": 24,
      "max": [
        1.0,
        1.0,
        1.0
      ],
      "min": [
        -1.0,
        -1.0,
        -1.0
      ],
      "type": "VEC3"
    },
    {
      "bufferView": 1,
      "componentType": 5126,
      "count": 24,
      "max": [
        0.8785368204116821,
        0.9999990463256836
      ],
      "min": [
        1.0095536708831787e-06,
        9.5367431640625e-07
      ],
      "type": "VEC2"
    },
    {
      "bufferView": 0,
      "componentType": 5125,
      "count": 36,
      "type": "SCALAR"
    },
    {
      "bufferView": 2,
      "byteOffset": 576,
      "componentType": 5126,
      "count": 89,
      "max": [
        15.396808624267578,
        40.57548522949219,
        1.3695850372314453
      ],
      "min": [
        -0.21477890014648438,
        -1.0000019073486328,
        -0.9999980926513672
      ],
      "type": "VEC3"
    },
    {
      "bufferView": 2,
      "byteOffset": 1644,
      "componentType": 5126,
      "count": 89,
      "max": [
        0.7217038869857788,
        0.9969173073768616,
        0.9045341610908508
      ],
      "min": [
        -0.9969174265861511,
        -0.7032052874565125,
        -0.9996110200881958
      ],
      "type": "VEC3"
    },
    {
      "bufferView": 1,
      "byteOffset": 192,
      "componentType": 5126,
      "count": 89,
      "max": [
        0.20848824083805084,
        0.0868687778711319
      ],
      "min": [
        0.006101842969655991,
        0.0051030851900577545
      ],
      "type": "VEC2"
    },
    {
      "bufferView": 0,
      "byteOffset": 144,
      "componentType": 5125,
      "count": 324,
      "type": "SCALAR"
    },
    {
      "bufferView": 2,
      "byteOffset": 2712,
      "componentType": 5126,
      "count": 1480,
      "max": [
        82.14981079101563,
        43.13737487792969,
        374.9519958496094
      ],
      "min": [
        -0.7108821868896484,
        -1.105536937713623,
        -45.56513977050781
      ],
      "type": "VEC3"
    },
    {
      "bufferView": 2,
      "byteOffset": 20472,
      "componentType": 5126,
      "count": 1480,
      "max": [
        1.0,
        1.0,
        1.0
      ],
      "min": [
        -1.0,
        -1.0,
        -1.0
      ],
      "type": "VEC3"
    },
    {
      "bufferView": 1,
      "byteOffset": 904,
      "componentType": 5126,
      "count": 1480,
      "max": [
        0.9999989867210388,
        0.9946075677871704
      ],
      "min": [
        1.0021030902862549e-06,
        9.98377799987793e-07
      ],
      "type": "VEC2"
    },
    {
      "bufferView": 0,
      "byteOffset": 1440,
      "componentType": 5125,
      "count": 2256,
      "type": "SCALAR"
    },
    {
      "bufferView": 2,
      "byteOffset": 38232,
      "componentType": 5126,
      "count": 153,
      "max": [
        1.0,
        40.614166259765625,
        1.3695850372314453
      ],
      "min": [
        -72.9700698852539,
        -1.0000019073486328,
        -0.9999980926513672
      ],
      "type": "VEC3"
    },
    {
      "bufferView": 2,
      "byteOffset": 40068,
      "componentType": 5126,
      "count": 153,
      "max": [
        0.9969173073768616,
        0.9967800378799438,
        0.9045342206954956
      ],
      "min": [
        -0.9866816997528076,
        -0.9860928058624268,
        -0.999592661857605
      ],
      "type": "VEC3"
    },
    {
      "bufferView": 1,
      "byteOffset": 12744,
      "componentType": 5126,
      "count": 153,
      "max": [
        0.6064983010292053,
        0.999998927116394
      ],
      "min": [
        1.0346993803977966e-06,
        1.0728836059570313e-06
      ],
      "type": "VEC2"
    },
    {
      "bufferView": 0,
      "byteOffset": 10464,
      "componentType": 5125,
      "count": 636,
      "type": "SCALAR"
    },
    {
      "bufferView": 2,
      "byteOffset": 41904,
      "componentType": 5126,
      "count": 192,
      "max": [
        31.263988494873047,
        43.53115463256836,
        1.3695869445800781
      ],
      "min": [
        -18.728137969970703,
        -1.1990547180175781,
        -41.253089904785156
      ],
      "type": "VEC3"
    },
    {
      "bufferView": 2,
      "byteOffset": 44208,
      "componentType": 5126,
      "count": 192,
      "max": [
        0.9999370574951172,
        0.9999718070030212,
        1.0
      ],
      "min": [
        -0.9999370574951172,
        -0.9999717473983765,
        -1.0
      ],
      "type": "VEC3"
    },
    {
      "bufferView": 1,
      "byteOffset": 13968,
      "componentType": 5126,
      "count": 192,
      "max": [
        0.9363540410995483,
        0.9999989867210388
      ],
      "min": [
        9.98377799987793e-07,
        9.834766387939453e-07
      ],
      "type": "VEC2"
    },
    {
      "bufferView": 0,
      "byteOffset": 13008,
      "componentType": 5125,
      "count": 288,
      "type": "SCALAR"
    }
  ],
  "asset": {
    "extras": {
      "author": "VladEv1L (https://sketchfab.com/VladEv1L)",
      "license": "SKETCHFAB Standard (https://sketchfab.com/licenses)",
      "source": "https://sketchfab.com/3d-models/terrace-3ddd086301a04f26b98ebbd2dd013d0c",
      "title": "Terrace, Терраса"
    },
    "generator": "Sketchfab-15.53.0",
    "version": "2.0"
  },
  "bufferViews": [
    {
      "buffer": 0,
      "byteLength": 14160,
      "name": "floatBufferViews",
      "target": 34963
    },
    {
      "buffer": 0,
      "byteLength": 15504,
      "byteOffset": 14160,
      "byteStride": 8,
      "name": "floatBufferViews",
      "target": 34962
    },
    {
      "buffer": 0,
      "byteLength": 46512,
      "byteOffset": 29664,
      "byteStride": 12,
      "name": "floatBufferViews",
      "target": 34962
    }
  ],
  "buffers": [
    {
      "byteLength": 76176,
      "uri": "scene.bin"
    }
  ],
  "extensionsUsed": [
    "KHR_materials_specular"
  ],
  "images": [
    {
      "uri": "textures/Terr_2_baseColor.png"
    },
    {
      "uri": "textures/Terr_4_baseColor.png"
    },
    {
      "uri": "textures/Terr_1_baseColor.png"
    },
    {
      "uri": "textures/Terr_3_baseColor.png"
    }
  ],
  "materials": [
    {
      "doubleSided": true,
      "extensions": {
        "KHR_materials_specular": {
          "specularColorFactor": [
            1.0,
            1.0,
            1.0
          ],
          "specularFactor": 0.0
        }
      },
      "name": "Terr_2",
      "pbrMetallicRoughness": {
        "baseColorTexture": {
          "index": 0
        },
        "metallicFactor": 0.0,
        "roughnessFactor": 0.552786
      }
    },
    {
      "doubleSided": true,
      "extensions": {
        "KHR_materials_specular": {
          "specularColorFactor": [
            1.0,
            1.0,
            1.0
          ],
          "specularFactor": 0.13257183259987076
        }
      },
      "name": "Terr_4",
      "pbrMetallicRoughness": {
        "baseColorTexture": {
          "index": 1
        },
        "metallicFactor": 0.0,
        "roughnessFactor": 0.552786
      }
    },
    {
      "doubleSided": true,
      "extensions": {
        "KHR_materials_specular": {
          "specularColorFactor": [
            1.0,
            1.0,
            1.0
          ],
          "specularFactor": 0.0
        }
      },
      "name": "Terr_1",
      "pbrMetallicRoughness": {
        "baseColorTexture": {
          "index": 2
        },
        "metallicFactor": 0.0,
        "roughnessFactor": 0.552786
      }
    },
    {
      "doubleSided": true,
      "extensions": {
        "KHR_materials_specular": {
          "specularColorFactor": [
            1.0,
            1.0,
            1.0
          ],
          "specularFactor": 0.0
        }
      },
      "name": "Terr_3",
      "pbrMetallicRoughness": {
        "baseColorTexture": {
          "index": 3
        },
        "metallicFactor": 0.0,
        "roughnessFactor": 0.552786
      }
    }
  ],
  "meshes": [
    {
      "name": "Object_0",
      "primitives": [
        {
          "attributes": {
            "NORMAL": 1,
            "POSITION": 0,
            "TEXCOORD_0": 2
          },
          "indices": 3,
          "material": 0,
          "mode": 4
        }
      ]
    },
    {
      "name": "Object_1",
      "primitives": [
        {
          "attributes": {
            "NORMAL": 5,
            "POSITION": 4,
            "TEXCOORD_0": 6
          },
          "indices": 7,
          "material": 1,
          "mode": 4
        }
      ]
    },
    {
      "name": "Object_2",
      "primitives": [
        {
          "attributes": {
            "NORMAL": 9,
            "POSITION": 8,
            "TEXCOORD_0": 10
          },
          "indices": 11,
          "material": 2,
          "mode": 4
        }
      ]
    },
    {
      "name": "Object_3",
      "primitives": [
        {
          "attributes": {
            "NORMAL": 13,
            "POSITION": 12,
            "TEXCOORD_0": 14
          },
          "indices": 15,
          "material": 1,
          "mode": 4
        }
      ]
    },
    {
      "name": "Object_4",
      "primitives": [
        {
          "attributes": {
            "NORMAL": 17,
            "POSITION": 16,
            "TEXCOORD_0": 18
          },
          "indices": 19,
          "material": 3,
          "mode": 4
        }
      ]
    }
  ],
  "nodes": [
    {
      "children": [
        1
      ],
      "matrix": [
        1.0,
        0.0,
        0.0,
        0.0,
        0.0,
        2.220446049250313e-16,
        -1.0,
        0.0,
        0.0,
        1.0,
        2.220446049250313e-16,
        0.0,
        0.0,
        0.0,
        0.0,
        1.0
      ],
      "name": "Sketchfab_model"
    },
    {
      "children": [
        2
      ],
      "name": "root"
    },
    {
      "children": [
        3,
        5,
        7,
        9,
        11
      ],
      "matrix": [
        1.0,
        0.0,
        0.0,
        0.0,
        0.0,
        2.220446049250313e-16,
        1.0,
        0.0,
        0.0,
        -1.0,
        2.220446049250313e-16,
        0.0,
        0.0,
        0.0,
        0.0,
        1.0
      ],
      "name": "GLTF_SceneRootNode"
    },
    {
      "children": [
        4
      ],
      "matrix": [
        1.0,
        0.0,
        0.0,
        0.0,
        0.0,
        1.0,
        0.0,
        0.0,
        0.0,
        0.0,
        1.0,
        0.0,
        5.167278289794922,
        -0.2505350112915039,
        1.2346009016036987,
        1.0
      ],
      "name": "Terr_2_0"
    },
    {
      "mesh": 0,
      "name": "Object_4"
    },
    {
      "children": [
        6
      ],
      "matrix": [
        0.09384039789438248,
        0.0,
        0.0,
        0.0,
        0.0,
        -8.482040922739919e-09,
        0.05031242594122815,
        0.0,
        0.0,
        -0.03921233862638418,
        -6.610706096618144e-09,
        0.0,
        0.17945098876953125,
        1.7494785785675049,
        0.21744349598884583,
        1.0
      ],
      "name": "Terr_4_1"
    },
    {
      "mesh": 1,
      "name": "Object_6"
    },
    {
      "children": [
        8
      ],
      "matrix": [
        -4.00290117706246e-09,
        0.0,
        -0.02374377474188771,
        0.0,
        0.0,
        0.023743774741888046,
        0.0,
        0.0,
        0.02374377474188771,
        0.0,
        -4.00290117706246e-09,
        0.0,
        1.2582604885101318,
        0.7494785785675049,
        2.2135403156280518,
        1.0
      ],
      "name": "Terr_1_2"
    },
    {
      "mesh": 2,
      "name": "Object_8"
    },
    {
      "children": [
        10
      ],
      "matrix": [
        0.09384039789438248,
        0.0,
        0.0,
        0.0,
        0.0,
        -8.482040922739919e-09,
        0.05031242594122815,
        0.0,
        0.0,
        -0.03921233862638418,
        -6.610706096618144e-09,
        0.0,
        10.09170913696289,
        1.7494785785675049,
        0.21744349598884583,
        1.0
      ],
      "name": "Terr_4_1_3"
    },
    {
      "mesh": 3,
      "name": "Object_10"
    },
    {
      "children": [
        12
      ],
      "matrix": [
        4.897304302713725e-10,
        -0.00037510177844380564,
        -0.028161808678462453,
        0.0,
        -6.199891175009586e-08,
        0.02374252185082902,
        -0.0003162389984499915,
        0.0,
        0.03795223683105882,
        9.909598914453739e-08,
        -6.599262415042921e-10,
        0.0,
        3.1681032180786133,
        -0.27586227655410767,
        2.925152540206909,
        1.0
      ],
      "name": "Terr_3_4"
    },
    {
      "mesh": 4,
      "name": "Object_12"
    }
  ],
  "samplers": [
    {
      "magFilter": 9729,
      "minFilter": 9987,
      "wrapS": 10497,
      "wrapT": 10497
    }
  ],
  "scene": 0,
  "scenes": [
    {
      "name": "Sketchfab_Scene",
      "nodes": [
        0
      ]
    }
  ],
  "textures": [
    {
      "sampler": 0,
      "source": 0
    },
    {
      "sampler": 0,
      "source": 1
    },
    {
      "sampler": 0,
      "source": 2
    },
    {
      "sampler": 0,
      "source": 3
    }
  ]
}
