{
  "accessors": [
    {
      "bufferView": 1,
      "componentType": 5126,
      "count": 65533,
      "max": [
        49.66667175292969,
        14.089139938354492,
        32.33332824707031
      ],
      "min": [
        -50.33332824707031,
        0.0,
        -49.66666030883789
      ],
      "type": "VEC3"
    },
    {
      "bufferView": 1,
      "byteOffset": 786396,
      "componentType": 5126,
      "count": 65533,
      "max": [
        1.0,
        1.0,
        1.0
      ],
      "min": [
        -1.0,
        -1.0,
        -1.0
      ],
      "type": "VEC3"
    },
    {
      "bufferView": 2,
      "componentType": 5126,
      "count": 65533,
      "max": [
        0.4627451002597809,
        0.4627451002597809,
        0.5529412031173706,
        1.0
      ],
      "min": [
        0.43921568989753723,
        0.3843137323856354,
        0.3333333432674408,
        1.0
      ],
      "type": "VEC4"
    },
    {
      "bufferView": 0,
      "componentType": 5125,
      "count": 155097,
      "type": "SCALAR"
    },
    {
      "bufferView": 1,
      "byteOffset": 1572792,
      "componentType": 5126,
      "count": 65532,
      "max": [
        49.66667175292969,
        14.43511962890625,
        41.66666030883789
      ],
      "min": [
        -50.33332824707031,
        0.0,
        10.333330154418945
      ],
      "type": "VEC3"
    },
    {
      "bufferView": 1,
      "byteOffset": 2359176,
      "componentType": 5126,
      "count": 65532,
      "max": [
        1.0,
        1.0,
        1.0
      ],
      "min": [
        -1.0,
        -1.0,
        -1.0
      ],
      "type": "VEC3"
    },
    {
      "bufferView": 2,
      "byteOffset": 1048528,
      "componentType": 5126,
      "count": 65532,
      "max": [
        0.4627451002597809,
        0.4627451002597809,
        0.5529412031173706,
        1.0
      ],
      "min": [
        0.43921568989753723,
        0.3843137323856354,
        0.3333333432674408,
        1.0
      ],
      "type": "VEC4"
    },
    {
      "bufferView": 0,
      "byteOffset": 620388,
      "componentType": 5125,
      "count": 120396,
      "type": "SCALAR"
    },
    {
      "bufferView": 1,
      "byteOffset": 3145560,
      "componentType": 5126,
      "count": 65534,
      "max": [
        49.66667175292969,
        14.132240295410156,
        50.33332824707031
      ],
      "min": [
        -50.33332824707031,
        0.0,
        33.66667175292969
      ],
      "type": "VEC3"
    },
    {
      "bufferView": 1,
      "byteOffset": 3931968,
      "componentType": 5126,
      "count": 65534,
      "max": [
        1.0,
        1.0,
        1.0
      ],
      "min": [
        -1.0,
        -1.0,
        -1.0
      ],
      "type": "VEC3"
    },
    {
      "bufferView": 2,
      "byteOffset": 2097040,
      "componentType": 5126,
      "count": 65534,
      "max": [
        0.4627451002597809,
        0.4627451002597809,
        0.5529412031173706,
        1.0
      ],
      "min": [
        0.43921568989753723,
        0.3843137323856354,
        0.3333333432674408,
        1.0
      ],
      "type": "VEC4"
    },
    {
      "bufferView": 0,
      "byteOffset": 1101972,
      "componentType": 5125,
      "count": 119868,
      "type": "SCALAR"
    },
    {
      "bufferView": 1,
      "byteOffset": 4718376,
      "componentType": 5126,
      "count": 65532,
      "max": [
        49.66667175292969,
        14.395950317382813,
        34.33332824707031
      ],
      "min": [
        -50.33332824707031,
        0.0,
        -32.33332824707031
      ],
      "type": "VEC3"
    },
    {
      "bufferView": 1,
      "byteOffset": 5504760,
      "componentType": 5126,
      "count": 65532,
      "max": [
        1.0,
        1.0,
        1.0
      ],
      "min": [
        -1.0,
        -1.0,
        -1.0
      ],
      "type": "VEC3"
    },
    {
      "bufferView": 2,
      "byteOffset": 3145584,
      "componentType": 5126,
      "count": 65532,
      "max": [
        0.4627451002597809,
        0.4627451002597809,
        0.5529412031173706,
        1.0
      ],
      "min": [
        0.43921568989753723,
        0.3843137323856354,
        0.3333333432674408,
        1.0
      ],
      "type": "VEC4"
    },
    {
      "bufferView": 0,
      "byteOffset": 1581444,
      "componentType": 5125,
      "count": 118863,
      "type": "SCALAR"
    },
    {
      "bufferView": 1,
      "byteOffset": 6291144,
      "componentType": 5126,
      "count": 65532,
      "max": [
        49.66667175292969,
        14.448200225830078,
        -5.0
      ],
      "min": [
        -50.33332824707031,
        0.0,
        -32.33332824707031
      ],
      "type": "VEC3"
    },
    {
      "bufferView": 1,
      "byteOffset": 7077528,
      "componentType": 5126,
      "count": 65532,
      "max": [
        1.0,
        1.0,
        1.0
      ],
      "min": [
        -1.0,
        -1.0,
        -1.0
      ],
      "type": "VEC3"
    },
    {
      "bufferView": 2,
      "byteOffset": 4194096,
      "componentType": 5126,
      "count": 65532,
      "max": [
        0.4627451002597809,
        0.4627451002597809,
        0.5529412031173706,
        1.0
      ],
      "min": [
        0.43921568989753723,
        0.3843137323856354,
        0.3333333432674408,
        1.0
      ],
      "type": "VEC4"
    },
    {
      "bufferView": 0,
      "byteOffset": 2056896,
      "componentType": 5125,
      "count": 137916,
      "type": "SCALAR"
    },
    {
      "bufferView": 1,
      "byteOffset": 7863912,
      "componentType": 5126,
      "count": 65532,
      "max": [
        49.66667175292969,
        13.95199966430664,
        -22.333330154418945
      ],
      "min": [
        -50.33332824707031,
        0.0,
        -39.66666030883789
      ],
      "type": "VEC3"
    },
    {
      "bufferView": 1,
      "byteOffset": 8650296,
      "componentType": 5126,
      "count": 65532,
      "max": [
        1.0,
        1.0,
        1.0
      ],
      "min": [
        -1.0,
        -1.0,
        -1.0
      ],
      "type": "VEC3"
    },
    {
      "bufferView": 2,
      "byteOffset": 5242608,
      "componentType": 5126,
      "count": 65532,
      "max": [
        0.4627451002597809,
        0.4627451002597809,
        0.5529412031173706,
        1.0
      ],
      "min": [
        0.43921568989753723,
        0.3843137323856354,
        0.3333333432674408,
        1.0
      ],
      "type": "VEC4"
    },
    {
      "bufferView": 0,
      "byteOffset": 2608560,
      "componentType": 5125,
      "count": 117192,
      "type": "SCALAR"
    },
    {
      "bufferView": 1,
      "byteOffset": 9436680,
      "componentType": 5126,
      "count": 22614,
      "max": [
        49.66667175292969,
        14.144319534301758,
        -39.0
      ],
      "min": [
        -50.33332824707031,
        0.0,
        -45.0
      ],
      "type": "VEC3"
    },
    {
      "bufferView": 1,
      "byteOffset": 9708048,
      "componentType": 5126,
      "count": 22614,
      "max": [
        1.0,
        1.0,
        1.0
      ],
      "min": [
        -1.0,
        -1.0,
        -1.0
      ],
      "type": "VEC3"
    },
    {
      "bufferView": 2,
      "byteOffset": 6291120,
      "componentType": 5126,
      "count": 22614,
      "max": [
        0.4627451002597809,
        0.4627451002597809,
        0.5529412031173706,
        1.0
      ],
      "min": [
        0.43921568989753723,
        0.3843137323856354,
        0.3333333432674408,
        1.0
      ],
      "type": "VEC4"
    },
    {
      "bufferView": 0,
      "byteOffset": 3077328,
      "componentType": 5125,
      "count": 40668,
      "type": "SCALAR"
    }
  ],
  "asset": {
    "extras": {
      "author": "Mehdi Mirzaie (https://sketchfab.com/MehdiMM)",
      "license": "CC-BY-4.0 (http://creativecommons.org/licenses/by/4.0/)",
      "source": "https://sketchfab.com/3d-models/pixel-terrain-112f0e14cb4a4c47af05f636cbeec6f6",
      "title": "Pixel Terrain"
    },
    "generator": "Sketchfab-13.91.0",
    "version": "2.0"
  },
  "bufferViews": [
    {
      "buffer": 0,
      "byteLength": 3240000,
      "name": "floatBufferViews",
      "target": 34963
    },
    {
      "buffer": 0,
      "byteLength": 9979416,
      "byteOffset": 3240000,
      "byteStride": 12,
      "name": "floatBufferViews",
      "target": 34962
    },
    {
      "buffer": 0,
      "byteLength": 6652944,
      "byteOffset": 13219416,
      "byteStride": 16,
      "name": "floatBufferViews",
      "target": 34962
    }
  ],
  "buffers": [
    {
      "byteLength": 19872360,
      "uri": "scene.bin"
    }
  ],
  "materials": [
    {
      "doubleSided": true,
      "name": "Scene_-_Root",
      "pbrMetallicRoughness": {
        "metallicFactor": 0.0,
        "roughnessFactor": 0.5034210501228374
      }
    }
  ],
  "meshes": [
    {
      "name": "Object_0",
      "primitives": [
        {
          "attributes": {
            "COLOR_0": 2,
            "NORMAL": 1,
            "POSITION": 0
          },
          "indices": 3,
          "material": 0,
          "mode": 4
        }
      ]
    },
    {
      "name": "Object_1",
      "primitives": [
        {
          "attributes": {
            "COLOR_0": 6,
            "NORMAL": 5,
            "POSITION": 4
          },
          "indices": 7,
          "material": 0,
          "mode": 4
        }
      ]
    },
    {
      "name": "Object_2",
      "primitives": [
        {
          "attributes": {
            "COLOR_0": 10,
            "NORMAL": 9,
            "POSITION": 8
          },
          "indices": 11,
          "material": 0,
          "mode": 4
        }
      ]
    },
    {
      "name": "Object_3",
      "primitives": [
        {
          "attributes": {
            "COLOR_0": 14,
            "NORMAL": 13,
            "POSITION": 12
          },
          "indices": 15,
          "material": 0,
          "mode": 4
        }
      ]
    },
    {
      "name": "Object_4",
      "primitives": [
        {
          "attributes": {
            "COLOR_0": 18,
            "NORMAL": 17,
            "POSITION": 16
          },
          "indices": 19,
          "material": 0,
          "mode": 4
        }
      ]
    },
    {
      "name": "Object_5",
      "primitives": [
        {
          "attributes": {
            "COLOR_0": 22,
            "NORMAL": 21,
            "POSITION": 20
          },
          "indices": 23,
          "material": 0,
          "mode": 4
        }
      ]
    },
    {
      "name": "Object_6",
      "primitives": [
        {
          "attributes": {
            "COLOR_0": 26,
            "NORMAL": 25,
            "POSITION": 24
          },
          "indices": 27,
          "material": 0,
          "mode": 4
        }
      ]
    }
  ],
  "nodes": [
    {
      "children": [
        1
      ],
      "matrix": [
        0.06270775198936462,
        1.4662040374786914e-33,
        -1.008417546089198e-17,
        0.0,
        -7.729327187297638e-34,
        0.06270775198936462,
        0.0,
        0.0,
        1.008417546089198e-17,
        0.0,
        0.06270775198936462,
        0.0,
        0.0,
        0.0,
        0.0,
        1.0
      ],
      "name": "Sketchfab_model"
    },
    {
      "children": [
        2,
        3,
        4,
        5,
        6,
        7,
        8
      ],
      "name": "Geode"
    },
    {
      "mesh": 0,
      "name": "Object_2"
    },
    {
      "mesh": 1,
      "name": "Object_3"
    },
    {
      "mesh": 2,
      "name": "Object_4"
    },
    {
      "mesh": 3,
      "name": "Object_5"
    },
    {
      "mesh": 4,
      "name": "Object_6"
    },
    {
      "mesh": 5,
      "name": "Object_7"
    },
    {
      "mesh": 6,
      "name": "Object_8"
    }
  ],
  "scene": 0,
  "scenes": [
    {
      "name": "Sketchfab_Scene",
      "nodes": [
        0
      ]
    }
  ]
}
